<?xml version="1.0" encoding="UTF-8" standalone="no"?>
<svg
   xmlns:dc="http://purl.org/dc/elements/1.1/"
   xmlns:cc="http://creativecommons.org/ns#"
   xmlns:rdf="http://www.w3.org/1999/02/22-rdf-syntax-ns#"
   xmlns:svg="http://www.w3.org/2000/svg"
   xmlns="http://www.w3.org/2000/svg"
   xmlns:sodipodi="http://sodipodi.sourceforge.net/DTD/sodipodi-0.dtd"
   xmlns:inkscape="http://www.inkscape.org/namespaces/inkscape"
   viewBox="0 0 512.00001 511.99999"
   height="512"
   width="512"
   version="1.1"
   id="svg4197"
   inkscape:version="0.91 r13725"
   sodipodi:docname="logo.svg">
  <sodipodi:namedview
     pagecolor="#ffffff"
     bordercolor="#666666"
     borderopacity="1"
     objecttolerance="10"
     gridtolerance="10"
     guidetolerance="10"
     inkscape:pageopacity="0"
     inkscape:pageshadow="2"
     inkscape:window-width="699"
     inkscape:window-height="480"
     id="namedview12"
     showgrid="false"
     inkscape:zoom="0.4609375"
     inkscape:cx="270.13826"
     inkscape:cy="256"
     inkscape:window-x="0"
     inkscape:window-y="0"
     inkscape:window-maximized="0"
     inkscape:current-layer="svg4197" />
  <metadata
     id="metadata4203">
    <rdf:RDF>
      <cc:Work
         rdf:about="">
        <dc:format>image/svg+xml</dc:format>
        <dc:type
           rdf:resource="http://purl.org/dc/dcmitype/StillImage" />
        <dc:title />
      </cc:Work>
    </rdf:RDF>
  </metadata>
  <defs
     id="defs4201" />
  <g
     id="g4146">
    <path
       id="path4759"
       d="m 71.54132,495.7281 c 0.810098,-8.93322 3.7801,-56.00315 6.600003,-104.59986 2.819903,-48.5967 5.772343,-98.60317 6.560978,-111.12551 1.037621,-16.47584 0.175084,-28.68492 -3.121111,-44.17883 -2.943931,-13.83808 -4.563407,-32.90041 -4.578782,-53.89537 -0.02206,-30.12397 0.602709,-34.27838 8.597996,-57.1726 C 104.8825,69.542365 146.25584,28.101519 201.47519,8.6921018 c 19.10661,-6.7159064 23.77472,-7.2968482 58.44703,-7.273674 35.71299,0.023869 38.86091,0.452433 60.24528,8.2018754 44.60937,16.1659128 80.83225,47.2258648 102.66719,88.0338228 19.82009,37.042364 25.38212,86.813494 15.37131,137.548864 -4.56708,23.14636 -4.59263,36.25392 -0.19,97.45328 0.66837,9.29055 2.97425,47.88205 5.1242,85.75889 2.14995,37.87684 4.59974,74.42183 5.44393,81.21107 l 1.53496,12.34408 -190.02531,0 -190.025291,0 1.472906,-16.24221 z m 94.82575,-218.85458 c 13.57849,-2.00359 40.10981,-5.98958 58.9585,-8.85778 l 34.27033,-5.21489 48.8898,7.40489 c 26.8894,4.07269 52.98284,7.96087 57.98544,8.64041 12.37862,1.68142 24.80497,-3.93253 29.71306,-13.4237 5.57563,-10.78209 5.662,-54.68735 0.12879,-65.38771 -8.0454,-15.55812 -7.62602,-15.51118 -138.21061,-15.46915 -89.98833,0.029 -120.58785,0.83061 -125.44095,3.28631 -3.53038,1.78639 -9.08521,7.20457 -12.34408,12.04039 -4.99767,7.41579 -5.92537,12.20379 -5.92537,30.58097 0,25.99571 4.18476,37.68791 16.08584,44.94381 4.73128,2.88457 9.18705,5.21199 9.90171,5.17199 0.71465,-0.04 12.40905,-1.71198 25.98754,-3.71554 z m -15.59253,-30.8251 c -8.73718,-4.75616 -13.5498,-9.88953 -19.03167,-20.30008 l -7.33727,-13.93414 11.2354,-3.50144 c 6.17948,-1.92579 20.00621,-3.67012 30.72607,-3.87628 16.79917,-0.32308 21.11601,0.5777 31.26083,6.5231 11.29076,6.61698 19.49003,18.4469 24.56903,35.44826 1.71614,5.74459 1.3585,5.92503 -8.17665,4.12552 -10.83048,-2.04398 -18.57602,-1.97104 -38.55757,0.36312 -10.70689,1.25073 -15.05196,0.39749 -24.68817,-4.84806 z m 4.0455,-4.92678 c -4.80734,-6.86343 -5.33889,-23.07642 -0.90205,-27.51325 2.45876,-2.45877 0.33609,-2.77526 -9.74533,-1.45303 -7.08882,0.92974 -13.26555,1.99991 -13.72606,2.37817 -1.81926,1.49433 12.59959,21.64502 19.20727,26.84262 8.94387,7.03525 10.22781,6.97199 5.16617,-0.25453 z m 60.92336,1.31835 c 0,-3.80346 -14.57496,-20.8027 -20.60122,-24.02785 -3.68166,-1.97037 -4.14708,-1.02457 -3.2552,6.61506 0.59995,5.139 -0.57662,11.38244 -2.7782,14.74247 -3.80684,5.80997 -3.77089,5.82833 11.40788,5.82833 10.21635,0 15.22674,-1.03914 15.22674,-3.15801 z m -51.97509,-22.67616 c 0,-0.6303 -1.16943,-1.86876 -2.59875,-2.75212 -1.42931,-0.88337 -2.59875,-0.36766 -2.59875,1.14601 0,1.51366 1.16944,2.75212 2.59875,2.75212 1.42932,0 2.59875,-0.5157 2.59875,-1.14601 z M 297.96853,245.598 c 6.15558,-20.0782 18.32557,-33.53635 35.4783,-39.23357 13.36437,-4.43893 24.34485,-4.09887 50.32255,1.55847 l 13.40013,2.91823 -6.09683,10.73362 c -3.35323,5.90349 -5.40191,11.85795 -4.55261,13.23215 0.8493,1.37419 0.31659,1.73983 -1.18382,0.81254 -1.50037,-0.92729 -3.37506,3.2e-4 -4.16595,2.06135 -0.79088,2.06103 -5.29883,5.83396 -10.01764,8.38429 -6.93764,3.7495 -14.91434,4.6459 -41.6786,4.68369 -31.90792,0.0451 -33.04164,-0.14029 -31.50553,-5.15077 z m 34.54555,-2.97593 c 0.61939,-0.55485 -0.2578,-2.39266 -1.94907,-4.08401 -1.69134,-1.69136 -3.07518,-6.93435 -3.07518,-11.65109 0,-4.71673 -0.95065,-8.57588 -2.11255,-8.57588 -4.27051,0 -21.27624,21.3685 -21.27624,26.73459 0,1.30676 26.80083,-0.97933 28.41304,-2.42361 z m 50.66717,-16.10168 c 4.18798,-5.90617 7.11158,-11.17797 6.49689,-11.7151 -0.61467,-0.53713 -6.13312,-1.61704 -12.26324,-2.39978 -10.51964,-1.34325 -11.04075,-1.10791 -9.27804,4.19026 2.76138,8.29987 3.31656,19.90659 0.95218,19.90659 -1.13398,0 -2.79585,1.91287 -3.693,4.25082 -2.89123,7.53437 9.22696,-2.16331 17.78521,-14.23279 z m -42.69765,-5.61055 c 0,-1.42932 -1.23846,-2.59875 -2.75213,-2.59875 -1.51367,0 -2.02937,1.16943 -1.146,2.59875 0.88337,1.42931 2.12183,2.59875 2.75213,2.59875 0.63031,0 1.146,-1.16944 1.146,-2.59875 z"
       style="fill:#d1d1d1"
       inkscape:connector-curvature="0" />
    <path
       id="path4755"
       d="m 72.811916,499.69579 c 0,-13.00212 2.857859,-61.50896 9.155432,-155.39655 4.731883,-70.54542 4.710692,-91.72289 -0.111768,-111.69501 -5.084817,-21.05866 -5.017956,-73.59291 0.1192,-93.65884 9.545918,-37.28673 34.68521,-76.397815 63.2184,-98.353598 86.6986,-66.713043 204.60178,-48.4346394 267.12227,41.41168 27.26396,39.180218 36.30269,92.820688 25.39734,150.721238 -4.81183,25.54773 -4.09411,46.85351 8.55331,253.90775 l 1.54773,25.33785 -187.50097,0 -187.500944,0 0,-12.27452 z M 172.86395,276.74413 c 15.72247,-2.14231 35.60294,-5.06807 44.17883,-6.50167 36.50967,-6.10323 48.32241,-5.93096 93.55898,1.36445 56.05713,9.04047 71.50401,9.54231 79.33169,2.57739 9.22234,-8.20588 12.9206,-20.27343 12.91621,-42.14629 -0.006,-22.38347 -4.50557,-34.72662 -15.58848,-42.74756 -6.02634,-4.36138 -15.25226,-4.7317 -127.38196,-5.11301 -108.15972,-0.36782 -121.76501,0.0439 -129.24403,3.9115 -12.98706,6.71586 -16.25671,15.83301 -16.15112,45.03593 0.101,27.93445 2.34465,34.56694 14.37628,42.49826 9.13921,6.02459 8.19299,6.0005 44.0036,1.121 z m -10.39501,-27.24709 c -2.85863,-1.22889 -4.23555,-2.31654 -3.05983,-2.41701 1.17573,-0.10045 -0.28606,-3.26395 -3.24844,-7.03 -6.4915,-8.25261 -6.93242,-18.32168 -1.08522,-24.78276 4.10293,-4.53369 3.77397,-4.76324 -7.14657,-4.98682 l -11.44748,-0.23438 9.09563,-2.6142 c 5.00261,-1.4378 16.82624,-2.1804 26.27475,-1.65022 22.20021,1.24573 36.81558,10.22076 44.33843,27.22743 6.54245,14.79027 4.31986,17.9307 -2.80544,3.96397 -4.5654,-8.94892 -17.3146,-21.26072 -22.01605,-21.26072 -0.81561,0 -0.76556,3.58682 0.11123,7.97072 1.16722,5.83612 0.12355,9.95978 -3.89706,15.39798 -3.90665,5.28402 -4.57289,7.79914 -2.30881,8.71601 1.75033,0.70882 0.0621,1.38109 -3.75162,1.49393 -3.81371,0.11285 -8.49147,0.7081 -10.39502,1.3228 -1.90355,0.61469 -5.79987,0.11217 -8.6585,-1.11673 z m 19.49065,-21.93695 c 0,-3.48893 -1.34368,-7.17395 -2.98597,-8.18894 -4.22262,-2.60972 -20.40281,-3.62281 -20.40281,-1.27747 0,3.98202 3.42004,5.15824 7.94969,2.73404 7.19419,-3.85021 13.50711,-0.23628 12.13407,6.94635 -0.64446,3.37125 -0.16447,6.12954 1.06664,6.12954 1.23111,0 2.23838,-2.85458 2.23838,-6.34352 z m 151.06793,21.66462 c -9.10346,-1.14406 -17.28954,-2.8703 -18.19129,-3.83608 -0.90175,-0.96578 4.01425,-0.93491 10.92444,0.0686 l 12.56399,1.82457 -5.77716,-7.81402 c -4.2868,-5.79822 -5.3659,-9.87024 -4.18301,-15.78474 0.8768,-4.3839 0.99754,-7.97072 0.26833,-7.97072 -4.56555,0 -15.33861,10.22092 -21.05589,19.97672 -8.62385,14.71549 -10.67109,12.80284 -3.23318,-3.02063 8.63652,-18.3734 21.60233,-25.86498 46.34485,-26.77781 12.08732,-0.44594 24.69405,0.78248 32.67445,3.18385 l 12.99377,3.90994 -16.24222,-1.48995 c -10.45964,-0.9595 -16.24221,-0.5285 -16.24221,1.21059 0,1.4853 1.16944,3.4233 2.59875,4.30667 4.69933,2.90434 2.8176,17.62335 -3.05174,23.87098 -3.10779,3.30808 -4.56959,6.00699 -3.24844,5.99757 3.80134,-0.0271 15.59223,-8.47003 21.75171,-15.5754 4.24949,-4.90208 5.01713,-5.2139 3.1272,-1.2703 -4.52429,9.44052 -16.23817,17.52899 -28.97374,20.00642 -3.57329,0.69511 -13.94518,0.32778 -23.04861,-0.81627 z m 7.72583,-31.68338 c -3.33547,-3.33546 -6.71791,-0.75754 -4.24854,3.238 0.95654,1.54773 2.9297,2.07826 4.3848,1.17896 1.77494,-1.09698 1.73012,-2.55059 -0.13618,-4.41696 z m -193.08592,26.62823 c -2.42357,-1.41337 -6.91041,-6.34793 -9.97074,-10.96568 l -5.56425,-8.39591 5.61153,6.49689 c 3.08634,3.57328 8.15789,8.5174 11.27012,10.98692 6.22484,4.93935 5.54017,5.89404 -1.34666,1.87778 z"
       style="fill:#8e8e8e"
       inkscape:connector-curvature="0" />
    <path
       id="path4753"
       d="m 72.831481,504.82374 c 0.01076,-3.93062 2.380946,-45.15336 5.26708,-91.60609 7.707278,-124.04974 8.910367,-163.21118 5.388997,-175.41591 -1.649573,-5.71726 -3.705077,-25.59773 -4.567786,-44.17882 -1.706684,-36.75866 1.444789,-56.19911 13.583343,-83.79135 C 125.09589,35.744685 203.55487,-8.3526837 283.28945,2.6013367 353.00055,12.178322 411.91666,60.60224 433.07993,125.71611 c 9.42712,29.00472 11.13517,70.76452 4.31881,105.58875 -4.04123,20.64634 -4.50901,30.4318 -2.85724,59.77134 2.68119,47.62477 9.5339,164.4265 11.47321,195.55626 l 1.57848,25.33785 -187.39064,0 -187.390634,0 0.01958,-7.14657 z M 164.85482,278.21518 c 97.56279,-15.22197 92.22172,-15.04287 153.53937,-5.14915 48.44341,7.81643 60.58554,8.53083 67.54041,3.97381 13.14695,-8.61422 16.89872,-18.69361 16.90937,-45.42824 0.0115,-27.4579 -4.6069,-39.03594 -17.55484,-44.01416 -6.40518,-2.46267 -153.33764,-4.71877 -227.28139,-3.48983 -25.21931,0.41914 -25.26283,0.43128 -34.43349,9.60194 l -9.18227,9.18226 0,28.67052 c 0,15.76878 1.24408,30.99509 2.76462,33.83623 3.66913,6.85585 17.76207,15.26077 25.60881,15.27291 3.45621,0.005 13.39644,-1.09998 22.08941,-2.45629 z m -6.00918,-36.25858 c -10.58491,-9.88778 -10.94015,-20.96102 -0.92452,-28.81903 3.93061,-3.08386 5.76558,-4.91648 4.0777,-4.07249 -1.68788,0.84399 -3.91856,0.15971 -4.95706,-1.52063 -1.41246,-2.28541 2.57181,-2.63867 15.81375,-1.40212 21.92907,2.04777 33.12641,8.94393 41.77116,25.72582 8.57602,16.64844 7.95434,18.63297 -1.27704,4.0766 -4.1752,-6.58361 -12.00244,-14.96766 -17.39386,-18.63123 -10.04543,-6.82604 -14.49412,-7.16442 -9.12416,-0.694 1.65766,1.99735 2.21029,5.72577 1.22808,8.28538 -1.22614,3.19526 -0.83295,4.06491 1.25454,2.77477 3.81495,-2.35778 3.81968,-0.92851 0.0245,7.40104 -1.65879,3.64054 -3.99767,6.61916 -5.19756,6.61916 -1.19989,0 -2.18162,1.75416 -2.18162,3.89813 0,6.89173 -14.23971,4.64839 -23.11395,-3.6414 z m 20.39453,-7.22147 c 5.96851,-4.18051 6.15214,-4.15291 4.32241,0.64969 -1.35705,3.5619 -1.10316,4.21489 0.87591,2.25288 3.31039,-3.28185 -1.38026,-19.32661 -5.65008,-19.32661 -1.6683,0 -1.55291,-1.33726 0.309,-3.58072 2.34955,-2.83103 1.73605,-3.91072 -2.93025,-5.15695 -3.72587,-0.99507 -6.96577,-0.15393 -8.78721,2.28133 -1.58688,2.12167 -4.31557,3.85758 -6.06376,3.85758 -1.74818,0 -2.64252,1.4618 -1.98741,3.24844 0.6551,1.78665 2.21435,3.0643 3.465,2.83923 1.25065,-0.22508 4.45768,-0.8098 7.12672,-1.29938 7.2145,-1.32336 11.74821,7.01136 6.60923,12.15034 -4.76891,4.76891 -12.67036,2.5915 -12.96658,-3.57321 -0.15823,-3.29337 -0.53716,-3.43018 -1.65696,-0.59826 -0.79849,2.01934 0.68678,5.2353 3.30061,7.14658 6.02224,4.40356 6.51949,4.37199 14.03337,-0.89094 z m -10.27435,-21.62155 c 0,-1.42932 1.16944,-2.59876 2.59876,-2.59876 1.42931,0 2.59875,1.16944 2.59875,2.59876 0,1.42931 -1.16944,2.59875 -2.59875,2.59875 -1.42932,0 -2.59876,-1.16944 -2.59876,-2.59875 z m 165.82945,34.6085 c 2.62635,-1.05117 2.34207,-2.54081 -1.24031,-6.4993 -2.80057,-3.0946 -4.64764,-9.18424 -4.64764,-15.32301 0,-5.60309 -0.81393,-10.18744 -1.80872,-10.18744 -4.21282,0 -18.08714,14.11265 -22.0179,22.39611 -2.34235,4.93614 -4.80673,8.42687 -5.47641,7.75719 -0.66968,-0.66968 2.11465,-7.36444 6.1874,-14.87726 10.02143,-18.48608 23.6247,-25.77216 47.44473,-25.41201 20.12382,0.30427 37.03949,4.24172 20.10326,4.67942 -8.52097,0.22023 -9.72757,0.94071 -8.04996,4.80686 1.08539,2.5013 2.4754,8.07015 3.08891,12.37522 1.65044,11.58131 -10.86571,22.13225 -25.92346,21.85311 -6.08696,-0.11284 -9.53392,-0.81884 -7.6599,-1.56889 z m 8.4157,-14.96289 c -1.70863,-2.05875 -2.7289,-6.33545 -2.26728,-9.50377 0.46161,-3.16832 -0.74587,-6.30022 -2.68327,-6.95977 -2.7328,-0.93033 -3.10128,0.76344 -1.64345,7.55469 2.29067,10.6713 3.37669,12.65202 6.93696,12.65202 1.79353,0 1.67315,-1.31389 -0.34296,-3.74317 z m 15.03422,-3.90668 c 0.47838,-3.26885 -0.25323,-7.0666 -1.62633,-8.43944 -1.59559,-1.59559 -2.01537,0.0185 -1.1636,4.47428 0.82323,4.30648 -0.045,7.9335 -2.27178,9.49053 -2.98171,2.08488 -2.93093,2.33863 0.29389,1.46909 2.14398,-0.5781 4.28951,-3.72561 4.76782,-6.99446 z m 5.6272,16.74549 c 3.57329,-2.04267 7.66633,-3.71395 9.09564,-3.71395 1.42931,0 -0.32484,1.67128 -3.89813,3.71395 -3.57329,2.04268 -7.66633,3.71396 -9.09564,3.71396 -1.42932,0 0.32484,-1.67128 3.89813,-3.71396 z m -222.4404,-7.14657 -4.95059,-5.8472 6.49688,5.16982 c 3.57329,2.8434 6.98415,5.47463 7.5797,5.8472 0.59555,0.37256 -0.10028,0.67738 -1.54629,0.67738 -1.44601,0 -4.85687,-2.63124 -7.5797,-5.8472 z m 238.29381,-3.77995 c 1.8923,-3.15095 3.99989,-5.16962 4.68356,-4.48594 0.68368,0.68369 -0.86454,3.26174 -3.44049,5.72901 -4.47491,4.28609 -4.53029,4.23071 -1.24307,-1.24307 z m -237.23479,-25.9319 c 1.87598,-0.75071 4.1174,-0.65838 4.98095,0.20518 0.86354,0.86355 -0.67134,1.47776 -3.41087,1.36492 -3.02739,-0.12468 -3.64319,-0.74049 -1.57008,-1.57008 z"
       style="fill:#717171"
       inkscape:connector-curvature="0" />
    <path
       id="path4751"
       d="m 72.865442,506.14596 c 0.02944,-3.22855 1.196566,-23.41163 2.593616,-44.85135 1.39705,-21.43973 4.266125,-70.55618 6.37572,-109.14768 2.109596,-38.5915 4.470286,-75.56455 5.245977,-82.16235 0.852332,-7.24966 -0.335386,-19.07419 -3.001875,-29.88567 -3.085985,-12.51236 -4.446101,-29.21623 -4.524929,-55.57163 -0.102961,-34.42365 0.493647,-39.41067 6.899748,-57.67473 C 96.675018,97.711151 112.95286,72.236034 134.04066,52.378075 175.38302,13.446811 219.55976,-1.6582221 278.1135,3.1162944 358.20205,9.6467761 424.26198,70.592631 439.25931,151.7869 c 3.89045,21.06257 2.07008,64.97935 -3.67308,88.6136 -3.04133,12.51559 -3.32647,22.77205 -1.44494,51.97508 1.28924,20.01041 4.10953,68.54214 6.2673,107.8483 2.1578,39.30616 4.64623,80.45674 5.52989,91.44572 l 1.60664,19.98 -187.36661,0.18307 -187.366594,0.18306 0.05353,-5.87 z M 168.11788,278.144 c 6.89828,-1.39548 30.66865,-5.03046 52.82303,-8.07776 l 40.28069,-5.54052 51.55269,8.07773 c 60.86771,9.5373 64.78048,9.68218 75.89937,2.81035 11.19405,-6.91833 14.18004,-16.48098 14.18004,-45.4118 0,-20.60003 -0.8232,-25.14041 -5.9372,-32.74632 -3.39232,-5.04538 -9.79724,-10.15977 -14.94283,-11.93203 -10.1339,-3.49037 -148.8656,-4.57617 -213.00785,-1.66713 l -37.68193,1.70899 -8.44595,8.41665 -8.44596,8.41665 0,29.01702 c 0,15.95936 1.24408,31.34159 2.76462,34.18273 7.15284,13.36524 25.37214,17.92187 50.96128,12.74544 z m -7.40887,-34.01193 c -7.01881,-5.23468 -11.78051,-18.13283 -8.59629,-23.28501 2.43592,-3.94141 9.05684,1.96966 9.05684,8.08581 0,5.47478 6.9429,9.98335 14.35233,9.32009 3.40884,-0.30514 5.14383,1.27215 5.35926,4.87216 0.43627,7.29061 -10.98254,7.86062 -20.17214,1.00695 z m 176.75011,-0.49604 c -8.53397,-7.19233 -10.9088,-14.71924 -7.48519,-23.72399 l 2.61645,-6.8818 -7.43823,3.84646 c -8.05623,4.16604 -21.05111,18.27566 -21.05111,22.85694 0,1.55787 -0.67095,2.16154 -1.49099,1.34148 -2.17269,-2.17268 5.21243,-15.35004 12.32425,-21.99031 13.18022,-12.30631 38.11288,-16.89901 60.63248,-11.16874 7.65599,1.94812 7.61591,1.98934 -2.2271,2.29128 -8.50116,0.26077 -9.728,0.99813 -8.0784,4.85529 5.39328,12.61094 4.48132,18.72602 -3.96994,26.6207 -9.98814,9.3303 -14.62738,9.71042 -23.83222,1.95269 z m 16.1891,-7.2251 c 5.70014,-3.05061 6.70627,-13.47074 1.70174,-17.62413 -1.82872,-1.51769 -7.14468,-2.65083 -11.81329,-2.5181 -8.08249,0.22982 -8.40892,0.62611 -6.82706,8.28844 0.9137,4.4259 3.52958,9.50889 5.81308,11.29554 5.01094,3.92064 4.85725,3.91293 11.12553,0.55825 z m -12.30217,-6.60696 c -0.86525,-2.2548 0.34091,-6.01372 2.68033,-8.35314 3.9388,-3.93882 4.56817,-3.93882 8.50697,0 5.31314,5.31311 2.87443,12.45278 -4.25349,12.45278 -2.94833,0 -6.06855,-1.84484 -6.93381,-4.09964 z m -128.71948,4.03562 c -2.37523,-4.13861 -9.03317,-10.78739 -14.79541,-14.77507 -9.85868,-6.82255 -13.22186,-11.14845 -8.66741,-11.14845 4.14597,0 21.64577,16.36044 25.5261,23.86417 5.24972,10.15183 3.55306,11.84525 -2.06328,2.05935 z m -46.23204,-1.20226 c -1.76423,-2.12577 -2.46998,-5.78748 -1.56833,-8.13712 1.43167,-3.7309 2.28471,-3.52799 6.73367,1.60172 4.80846,5.5442 4.88762,10.40043 0.16953,10.40043 -1.16995,0 -3.57065,-1.73926 -5.33488,-3.86503 z"
       style="fill:#4e4e4e"
       inkscape:connector-curvature="0" />
    <path
       id="path4749"
       d="m 74.24069,509.5809 c -0.817994,-1.32351 0.250702,-30.8557 2.374878,-65.62706 2.124176,-34.77133 4.535335,-76.08445 5.35813,-91.80691 1.442813,-27.57013 1.869505,-33.8078 5.257749,-76.86109 1.146508,-14.56831 0.373392,-24.02997 -2.972837,-36.38257 -3.298864,-12.17774 -4.542062,-26.8883 -4.595349,-54.37599 -0.06618,-34.14015 0.573999,-39.54744 6.811045,-57.52952 C 105.47173,72.226121 147.71675,29.502249 200.95055,11.223899 c 19.5209,-6.7026892 24.42051,-7.3090311 58.97167,-7.2979243 29.19587,0.00938 41.05462,1.0772807 52.65818,4.7419336 8.23693,2.6014007 14.31575,5.7985137 13.50848,7.1046937 -0.80726,1.30618 0.12278,1.764521 2.0668,1.018534 1.94403,-0.745986 11.29567,2.957394 20.78146,8.229733 47.43617,26.365724 80.22658,72.399912 90.31347,126.790351 3.88026,20.92307 2.04182,64.50761 -3.7368,88.58928 -3.2509,13.54766 -3.25691,23.60154 -0.0459,76.66325 9.45435,156.23049 11.26926,190.68318 10.14114,192.50855 -1.79117,2.89816 -369.577289,2.90671 -371.368394,0.009 z M 187.1571,275.50067 c 12.14918,-1.52502 33.19603,-4.65533 46.77078,-6.95621 26.56428,-4.5026 20.83439,-4.92594 97.46008,7.2005 37.87352,5.99369 46.04675,6.11954 56.20701,0.86549 11.45231,-5.92223 15.25873,-17.58939 15.25873,-46.77002 0,-21.43159 -0.80087,-26.14487 -5.58382,-32.86192 -10.28651,-14.44606 -14.63099,-15.04998 -108.267,-15.04998 -46.98731,0 -101.57918,0.77443 -121.31527,1.72095 -34.9096,1.67424 -36.12015,1.92848 -44.58971,9.36485 l -8.70592,7.6439 0,29.78731 c 0,16.38302 1.21788,32.06292 2.7064,34.84427 1.48852,2.78131 6.93564,7.73358 12.1047,11.00499 8.08353,5.11596 11.24954,5.67041 22.63145,3.96334 7.27824,-1.09159 23.1734,-3.23246 35.32257,-4.75747 z m -25.28597,-31.01336 c -5.02692,-4.19473 -5.28534,-5.25914 -1.94906,-8.02801 3.4637,-2.87461 4.89801,-1.82427 4.22085,3.09092 -0.13248,0.96167 3.25991,0.74447 7.53866,-0.48266 4.76378,-1.36623 7.19694,-1.28848 6.27665,0.20057 -0.82659,1.33747 -0.12124,2.43174 1.56744,2.43174 2.28801,0 2.24601,0.99325 -0.16482,3.89813 -4.29996,5.18115 -10.415,4.79281 -17.4897,-1.11069 z m 14.89096,-0.18868 c 0,-1.42932 -1.23846,-2.59876 -2.75213,-2.59876 -1.51367,0 -2.02937,1.16944 -1.14601,2.59876 0.88337,1.42931 2.12182,2.59875 2.75213,2.59875 0.6303,0 1.14601,-1.16944 1.14601,-2.59875 z m 162.45166,0.0439 c -8.8722,-5.84806 -12.49499,-15.86871 -9.03099,-24.97974 3.68007,-9.67928 -1.86944,-7.75653 -14.72926,5.10328 -6.24385,6.24385 -11.35246,10.1993 -11.35246,8.7899 0,-1.4094 4.4278,-6.99034 9.83954,-12.40208 13.14173,-13.14173 27.2675,-16.8901 51.23119,-13.59455 15.58432,2.1432 16.56287,2.55573 6.82837,2.87862 -9.41529,0.3123 -10.84613,0.9996 -8.34781,4.00989 8.35841,10.07125 4.62683,24.97301 -7.80679,31.17571 -9.96789,4.97263 -7.36658,5.12607 -16.63179,-0.98103 z M 361.21785,227.26 c -3.47139,-9.13041 -6.77304,-11.45572 -16.33981,-11.50788 -4.97692,-0.0271 -6.7763,-1.07352 -5.65447,-3.28823 0.90502,-1.78665 -0.158,-1.02965 -2.36214,1.68223 -2.20418,2.71187 -3.19888,6.22018 -2.21047,7.79626 0.98843,1.57607 1.89488,4.03503 2.01434,5.46434 0.95819,11.46401 11.16033,15.26285 19.85588,7.39349 4.9791,-4.50601 6.6326,-1.60836 2.16297,3.79044 -1.42417,1.72028 -0.79141,1.57198 1.40619,-0.32955 3.23158,-2.79621 3.44722,-4.89988 1.12751,-11.0011 z m -18.89212,5.02073 c -2.78755,-2.78755 -2.20556,-6.70475 0.72687,-4.8924 1.50278,0.92876 1.89023,-0.18105 0.93358,-2.67407 -1.27981,-3.3351 -0.28442,-4.07079 4.57757,-3.38342 7.9602,1.12539 8.69955,10.91745 0.90855,12.0327 -2.91744,0.41762 -6.13339,-0.0696 -7.14657,-1.08281 z m 8.87537,-6.86639 c -2.56658,-2.54747 -2.86508,-2.24897 -1.45478,1.45477 0.97591,2.56295 2.42903,4.00526 3.22916,3.20513 0.80013,-0.80012 0.002,-2.89707 -1.77438,-4.6599 z m 7.47378,-12.30076 c 0,-1.42932 -1.23845,-2.59876 -2.75213,-2.59876 -1.51367,0 -2.02937,1.16944 -1.146,2.59876 0.88337,1.42931 2.12183,2.59875 2.75214,2.59875 0.63028,0 1.14599,-1.16944 1.14599,-2.59875 z m -9.36334,-2.16563 c 0.73615,-1.1911 -0.31283,-2.16563 -2.33105,-2.16563 -2.01822,0 -3.06721,0.97453 -2.33106,2.16563 0.73612,1.19109 1.78511,2.16563 2.33106,2.16563 0.54594,0 1.59493,-0.97454 2.33105,-2.16563 z m -138.24922,20.75432 c -3.28925,-5.22118 -9.7047,-12.12429 -14.25655,-15.34025 -4.55186,-3.21596 -6.98848,-5.8472 -5.41472,-5.8472 4.79416,0 15.86081,9.95593 21.86441,19.66996 3.12376,5.05435 5.2538,9.59941 4.73344,10.10013 -0.52037,0.50072 -3.63733,-3.36147 -6.92658,-8.58264 z m -58.01387,2.20134 c -1.59893,-12.79149 0.52173,-17.40304 4.18271,-9.09564 1.88966,4.28795 2.8951,8.67334 2.23432,9.74533 -1.74188,2.82586 -6.03694,2.39101 -6.41703,-0.64969 z m 11.61663,-4.01021 c -2.45263,-6.39146 0.46142,-6.93472 7.18104,-1.33874 l 6.21534,5.17603 -5.92876,0.0864 c -3.26081,0.0476 -6.62124,-1.71813 -7.46762,-3.92375 z"
       style="fill:#323232"
       inkscape:connector-curvature="0" />
  </g>
</svg>
