<?xml version="1.0" encoding="UTF-8" standalone="no"?>
<svg
   xmlns:dc="http://purl.org/dc/elements/1.1/"
   xmlns:cc="http://creativecommons.org/ns#"
   xmlns:rdf="http://www.w3.org/1999/02/22-rdf-syntax-ns#"
   xmlns:svg="http://www.w3.org/2000/svg"
   xmlns="http://www.w3.org/2000/svg"
   xmlns:sodipodi="http://sodipodi.sourceforge.net/DTD/sodipodi-0.dtd"
   xmlns:inkscape="http://www.inkscape.org/namespaces/inkscape"
   width="512"
   height="512"
   viewBox="0 0 409.5997 409.59989"
   id="svg2"
   version="1.1"
   inkscape:version="0.91 r13725"
   sodipodi:docname="group.svg">
  <metadata
     id="metadata9">
    <rdf:RDF>
      <cc:Work
         rdf:about="">
        <dc:format>image/svg+xml</dc:format>
        <dc:type
           rdf:resource="http://purl.org/dc/dcmitype/StillImage" />
        <dc:title></dc:title>
      </cc:Work>
    </rdf:RDF>
  </metadata>
  <defs
     id="defs7" />
  <sodipodi:namedview
     pagecolor="#ffffff"
     bordercolor="#666666"
     borderopacity="1"
     objecttolerance="10"
     gridtolerance="10"
     guidetolerance="10"
     inkscape:pageopacity="0"
     inkscape:pageshadow="2"
     inkscape:window-width="939"
     inkscape:window-height="549"
     id="namedview5"
     showgrid="false"
     units="px"
     inkscape:zoom="0.33714276"
     inkscape:cx="211.28341"
     inkscape:cy="243.94631"
     inkscape:window-x="300"
     inkscape:window-y="73"
     inkscape:window-maximized="0"
     inkscape:current-layer="svg2" />
  <circle
     style="opacity:1;fill:#00d455;fill-opacity:1;stroke:none"
     id="path4137"
     cx="204.79985"
     cy="204.79994"
     r="204.79994" />
  <path
     id="Selection"
     d="m 140.51755,75.058251 c 26.13253,14.684212 25.48971,54.148029 -0.89281,68.105679 -4.41942,2.33265 -9.38344,3.17393 -14.28496,3.37469 -28.311,1.15677 -46.274332,-33.64176 -30.435887,-58.708164 7.321037,-11.5772 16.231277,-15.515934 28.650267,-16.644018 6.0711,0.05736 11.51724,0.812603 16.96339,3.871813 z m 160.70575,0 c 26.13254,14.684212 25.48972,54.148029 -0.89281,68.105679 -4.41941,2.33265 -9.38343,3.17393 -14.28496,3.37469 -28.31099,1.15677 -46.27433,-33.64176 -30.43588,-58.708164 7.32104,-11.5772 16.23128,-15.515934 28.65026,-16.644018 6.07111,0.05736 11.51725,0.812603 16.96339,3.871813 z m -75.88883,38.383539 c 16.3027,7.94438 28.46277,22.05499 31.73046,41.3089 5.63363,33.23068 -14.65994,65.19943 -46.90823,67.95272 -2.72307,0.239 -4.33905,0.79348 -7.14247,0.57361 -13.90105,-1.11853 -25.46294,-5.42054 -35.67668,-16.03218 -20.80247,-21.61524 -20.95425,-58.95673 -0.84817,-81.13601 7.08891,-7.82967 17.54371,-13.89073 27.59675,-15.85053 0,0 8.03529,-0.97513 8.03529,-0.97513 6.45501,-0.55448 17.2848,1.27149 23.21305,4.15862 z m -97.31626,99.3383 c -9.16916,6.35743 -8.21385,10.73592 -17.8562,10.80284 -9.98161,0.0669 -22.873784,0.239 -31.239412,-6.3383 -9.338789,-7.35167 -7.910294,-18.30746 -7.231758,-29.03382 0.580326,-9.12027 0.553542,-15.73581 2.901631,-24.85609 1.714195,-6.68246 6.133603,-16.94994 14.142107,-15.47769 0,0 17.856192,8.57535 17.856192,8.57535 13.13323,4.91386 22.52559,4.33069 35.7124,0 0,11.49116 -0.66069,17.71474 2.47308,28.89042 2.24987,8.03043 5.30329,12.06476 8.24063,19.12007 -9.42807,0.0956 -17.08838,2.82977 -24.99867,8.31722 z m 174.99071,-56.32771 c 0,0 17.8562,-8.57535 17.8562,-8.57535 8.0085,-1.47225 12.4279,8.79523 14.1421,15.47769 2.34809,9.12028 2.3213,15.73582 2.90163,24.85609 0.67854,10.72636 2.10703,21.68215 -7.23176,29.03382 -8.22278,6.46258 -20.54355,6.35742 -30.3466,6.3383 -11.06192,-0.0191 -8.54419,-3.72841 -18.74901,-10.80284 -7.91029,-5.48745 -15.5706,-8.22162 -24.99867,-8.31722 2.93735,-7.05531 5.99076,-11.08964 8.24064,-19.12007 3.13376,-11.17568 2.47307,-17.39926 2.47307,-28.89042 13.18681,4.33069 22.57917,4.91386 35.7124,0 z m -128.56461,70.13241 c 9.58878,5.64041 21.23102,8.59447 32.14116,8.47018 9.07987,-0.11472 21.58814,-4.21597 29.46272,-9.01511 3.98193,-2.42824 14.70457,-10.49692 17.85619,-11.36688 7.23176,-1.98848 21.20423,4.27334 26.78429,9.22544 17.60621,15.62109 21.02567,48.43113 22.2399,71.38477 0.39283,7.41858 -1.85705,20.61143 -5.83005,26.76809 -8.62454,13.38405 -22.72201,16.23294 -36.94447,16.25206 0,0 -94.63783,0 -94.63783,0 -14.57958,0 -33.16789,1.65388 -45.49759,-7.85835 -10.21374,-7.87747 -12.6779,-19.62675 -13.3475,-32.29379 0,0 0.80352,-11.47204 0.80352,-11.47204 0.48212,-20.31508 6.62465,-50.57258 22.32918,-63.54555 7.14248,-5.9081 13.67784,-7.42814 22.32024,-8.66139 7.18712,-0.20076 15.86523,8.30767 22.32024,12.11257 z"
     style="fill:#ffffff;fill-opacity:1;stroke:none;stroke-width:1"
     inkscape:connector-curvature="0" />
</svg>
