<?xml version="1.0" encoding="UTF-8" standalone="no"?>
<svg
   xmlns:dc="http://purl.org/dc/elements/1.1/"
   xmlns:cc="http://creativecommons.org/ns#"
   xmlns:rdf="http://www.w3.org/1999/02/22-rdf-syntax-ns#"
   xmlns:svg="http://www.w3.org/2000/svg"
   xmlns="http://www.w3.org/2000/svg"
   viewBox="0 0 695 695"
   height="695"
   width="695"
   version="1.1"
   id="svg4291">
  <metadata
     id="metadata4297">
    <rdf:RDF>
      <cc:Work
         rdf:about="">
        <dc:format>image/svg+xml</dc:format>
        <dc:type
           rdf:resource="http://purl.org/dc/dcmitype/StillImage" />
        <dc:title></dc:title>
      </cc:Work>
    </rdf:RDF>
  </metadata>
  <defs
     id="defs4295" />
  <g
     id="g4841">
    <path
       id="path4857"
       d="M 0,347.5 0,0 347.5,0 695,0 695,347.5 695,695 347.5,695 0,695 0,347.5 Z"
       style="fill:#fefefe" />
    <path
       id="path4855"
       d="M 312.5,693.60634 C 254.99461,685.92647 211.92643,671.51862 167.5786,645.12492 79.161303,592.50319 17.575077,500.00251 2.4325441,397.08046 c -3.4613051,-23.52609 -3.4613051,-76.88483 0,-100.41092 C 16.261495,202.67575 67.201458,119.51326 145.7036,62.771073 185.80336,33.786544 238.59165,12.257743 292.5,2.9026684 c 19.18387,-3.32910568 89.56612,-3.32910568 108.75,0 53.90835,9.3550746 106.69664,30.8838756 146.7964,59.8684046 92.99969,67.221147 146.9037,171.468667 146.9037,284.103927 0,91.41064 -35.45916,177.95485 -99.78763,243.5489 -56.72891,57.845 -126.44751,91.806 -210.73555,102.65252 -16.27516,2.09436 -57.91556,2.40113 -71.92692,0.52992 z M 270.47222,537.98369 c 7.71514,-2.62883 17.40682,-12.36725 20.06149,-20.1583 2.66252,-7.81404 2.46674,-18.47723 -0.4575,-24.91784 -3.22801,-7.1097 -12.75582,-16.2365 -18.85871,-18.06498 -2.73213,-0.81856 -4.9675,-2.24301 -4.9675,-3.16543 0,-1.39089 19.94755,-1.67714 116.875,-1.67714 78.96526,0 116.875,0.41549 116.875,1.28094 0,0.70451 -1.54688,1.84442 -3.4375,2.53313 -10.87614,3.96194 -17.57203,9.99865 -21.87155,19.71845 -1.884,4.25909 -2.34429,7.58649 -1.99734,14.43852 0.40146,7.92873 0.99742,9.72287 5.44111,16.38072 4.05679,6.07815 6.51016,8.26495 13.11528,11.69025 7.3636,3.81864 8.8864,4.1605 16.25,3.64804 9.54321,-0.66416 16.22937,-3.75816 22.73734,-10.52164 12.77155,-13.27298 12.77155,-32.56384 0,-45.83682 -4.74835,-4.93478 -12.417,-9.58159 -15.81254,-9.58159 -1.05864,0 -1.9248,-0.84375 -1.9248,-1.875 0,-1.42832 1.56336,-1.87546 6.5625,-1.87694 8.08455,-0.002 14.32994,-2.97685 18.10009,-8.62041 3.61481,-5.41105 3.6073,-11.11426 -0.0217,-16.5053 -5.65135,-8.39521 2.91139,-7.90388 -138.59916,-7.95289 -70.58333,-0.0245 -128.66874,-0.37987 -129.07869,-0.78981 -0.40995,-0.40995 0.66817,-3.94161 2.39582,-7.84815 3.89997,-8.81851 3.88523,-15.35199 -0.0641,-28.43539 -0.51613,-1.7098 1.30971,-2.26511 11.60894,-3.53076 6.72177,-0.82603 13.9089,-1.72554 15.9714,-1.99891 2.0625,-0.27338 14.15625,-1.66307 26.875,-3.0882 12.71875,-1.42514 44.21875,-5.08398 70,-8.13076 49.36343,-5.83368 50.3336,-5.94963 68.125,-8.14206 6.1875,-0.76248 18.5625,-2.17277 27.5,-3.13398 48.70748,-5.23838 71.02891,-8.21611 74.31077,-9.91323 1.98943,-1.02877 4.78648,-3.51269 6.21568,-5.51981 C 574.96423,352.78933 575,351.69446 575,276.875 c 0,-74.71019 -0.0394,-75.91934 -2.58693,-79.49708 -1.42281,-1.99816 -3.81343,-4.33498 -5.3125,-5.19296 C 564.97461,190.96819 527.25082,190.4875 395.625,190 l -168.75,-0.625 -1.98978,-10 c -2.67176,-13.42748 -5.17335,-18.82554 -10.1225,-21.84296 -3.92227,-2.39134 -6.22231,-2.52294 -44.17208,-2.52736 -43.0314,-0.005 -42.34605,-0.0993 -48.37665,6.64869 -5.61382,6.28158 -3.09517,17.52028 5.15836,23.01763 4.1207,2.74464 5.15369,2.829 34.63932,2.829 l 30.39197,0 1.23896,4.6875 c 0.68144,2.57812 2.1319,8.90625 3.22327,14.0625 1.09137,5.15625 3.95324,18.65625 6.35972,30 2.40648,11.34375 4.89745,23.15625 5.53548,26.25 0.63804,3.09375 2.51927,11.8125 4.1805,19.375 5.87857,26.76114 12.0035,55.22568 15.73487,73.125 2.07812,9.96875 5.74601,26.84375 8.15086,37.5 4.9079,21.74771 5.1758,24.61852 2.63581,28.24488 -0.98278,1.40312 -4.46047,7.85641 -7.72818,14.34062 -4.73663,9.39904 -5.9584,13.11541 -6.02562,18.32874 -0.0761,5.90674 0.35609,6.97986 4.4688,11.09479 4.18993,4.19215 5.26183,4.60625 13.4375,5.19122 4.88641,0.34961 8.88439,1.12968 8.88439,1.73348 0,0.60378 -2.95313,2.4103 -6.5625,4.01445 -11.70639,5.20282 -19.31911,15.48233 -20.59081,27.8039 -0.6991,6.77366 1.52466,17.99792 3.56576,17.99792 0.59815,0 1.08755,0.72959 1.08755,1.62131 0,2.63717 9.21122,10.84703 15.78066,14.06513 7.28984,3.57101 16.17831,3.948 24.69156,1.04725 z"
       style="fill:#fad3d1" />
    <path
       id="path4853"
       d="M 306.875,692.4511 C 236.90739,683.47606 176.2338,657.27236 123.61039,613.30282 56.839609,557.51242 12.744453,477.01646 1.7846572,390.90924 -1.2301324,367.2231 -0.21216166,310.31471 3.5958309,289.65782 19.242056,204.78307 60.150376,133.47125 123.61039,80.447178 174.95959,37.542301 236.40031,10.648024 303.01926,1.9150439 c 19.70667,-2.58331795 68.00481,-2.58331795 87.71148,0 42.99451,5.6360881 88.3914,20.4054621 123.64426,40.2262861 79.10979,44.479264 135.59259,112.81761 163.12261,197.36149 23.19899,71.2434 23.18642,143.49587 -0.0374,214.87218 C 650.15438,538.29692 594.06061,606.40327 515.50834,651.00917 454.8808,685.43652 375.34836,701.23446 306.875,692.4511 Z m -31.25,-156.45543 c 8.46867,-5.44077 13.711,-12.3483 16.7873,-22.1197 4.8645,-15.45142 -6.68545,-35.00626 -23.9748,-40.59092 C 259.42149,470.37278 272.37662,470 382.60416,470 c 90.15999,0 116.24123,0.33882 115.85248,1.50508 -0.27593,0.82778 -2.25284,1.95883 -4.39315,2.51345 -5.99056,1.55231 -17.25398,12.56532 -19.9091,19.46649 -3.1889,8.28861 -2.87873,19.63137 0.7285,26.64003 7.04092,13.68021 18.44002,20.42225 33.26329,19.67371 11.51023,-0.58123 19.13323,-4.97467 26.04863,-15.01286 4.01093,-5.82212 4.9259,-8.33175 5.45192,-14.9536 0.82706,-10.41178 -1.08864,-17.01922 -7.16208,-24.7027 -3.52641,-4.46124 -7.12925,-7.28496 -12.45975,-9.7653 -4.12437,-1.91911 -7.50473,-3.91117 -7.51189,-4.4268 -0.008,-0.51562 3.50262,-0.9396 7.79949,-0.94217 9.16479,-0.005 14.71766,-2.76058 17.87681,-8.8697 4.1566,-8.03798 2.01455,-15.56189 -6.1704,-21.67339 -3.42719,-2.559 -4.36644,-2.57958 -132.73526,-2.90694 C 276.11341,436.2312 270,436.11002 270,433.9828 c 0,-1.22804 0.50746,-2.76717 1.12769,-3.4203 0.62022,-0.65313 1.96704,-3.71875 2.99291,-6.8125 1.6474,-4.96815 1.65074,-6.76961 0.0285,-15.42701 -1.01021,-5.3911 -1.64049,-9.99825 -1.40063,-10.23812 0.40663,-0.40662 7.50866,-1.23528 52.87654,-6.16965 9.625,-1.04683 18.90625,-2.18402 20.625,-2.52706 1.71875,-0.34305 10.71875,-1.46079 20,-2.48387 9.28125,-1.02308 26.71875,-3.02334 38.75,-4.44503 12.03125,-1.42169 28.90625,-3.38967 37.5,-4.37332 8.59375,-0.98364 25.46875,-2.94524 37.5,-4.35909 12.03125,-1.41386 28.90625,-3.38265 37.5,-4.37509 51.83086,-5.9856 49.43863,-5.40062 55.54776,-13.58316 2.53639,-3.39721 2.57724,-4.6478 2.57724,-78.8936 0,-74.2458 -0.0409,-75.49639 -2.57724,-78.8936 -1.41747,-1.89856 -4.13046,-4.61169 -6.02886,-6.02916 -3.44085,-2.56919 -3.97775,-2.57829 -171.83705,-2.91163 l -168.38542,-0.33439 -1.36645,-8.67801 c -1.62318,-10.30841 -5.9548,-19.54135 -10.83184,-23.08825 -3.35151,-2.43742 -5.46471,-2.58176 -42.5,-2.9028 -35.24768,-0.30554 -39.38285,-0.1263 -43.25929,1.875 -12.04821,6.22022 -13.14385,22.17823 -1.99572,29.06814 3.79847,2.34759 6.17846,2.5197 34.8431,2.5197 l 30.76615,0 0.58983,2.8125 c 1.89865,9.05309 6.17474,29.14909 9.9077,46.5625 2.3581,11 6.32754,29.5625 8.82097,41.25 2.49342,11.6875 5.33877,24.90625 6.323,29.375 0.98422,4.46875 2.97846,13.75 4.43165,20.625 1.45319,6.875 3.4508,16.15625 4.43913,20.625 0.98834,4.46875 3.78253,17.40625 6.20932,28.75 2.42677,11.34375 5.27782,24.5625 6.33565,29.375 l 1.92332,8.75 -8.21647,16.0754 c -9.03424,17.67535 -10.15968,23.4522 -5.84411,29.99797 3.88671,5.89534 8.67295,8.28419 16.61636,8.29339 3.91255,0.005 7.41682,0.49865 7.78727,1.09805 0.37045,0.5994 -1.76167,2.01984 -4.73805,3.15653 -28.58672,10.91736 -29.51465,50.31902 -1.49467,63.46707 7.6195,3.57536 23.23042,2.68395 30.08172,-1.71774 z"
       style="fill:#f7afac" />
    <path
       id="path4851"
       d="m 318.75,693.60235 c -4.46875,-0.5935 -14.875,-1.98533 -23.125,-3.09295 C 261.98467,685.99292 224.71404,674.07685 190.61191,656.93489 91.029899,606.87842 22.955557,514.086 3.4949742,401.875 c -2.51421444,-14.49712 -2.81821265,-20.42992 -2.81821265,-55 0,-43.31655 1.29030555,-54.67089 9.97961745,-87.81794 C 44.173059,131.20123 148.81134,32.165638 277.76475,6.2505812 309.3033,-0.08754575 355.35203,-1.9411601 387.50766,1.833064 c 102.65635,12.04915 193.94758,68.879137 251.25639,156.410406 41.4396,63.29327 62.55209,149.07517 54.31831,220.70013 -5.53579,48.15529 -15.68934,83.28372 -35.68269,123.45211 -44.7799,89.9667 -127.67115,156.61922 -225.52467,181.34344 -17.19799,4.34534 -28.86291,6.34281 -58.125,9.95314 -12.34968,1.52368 -43.2304,1.4732 -55,-0.09 z m -50.07256,-154.3216 c 7.68921,-2.28345 17.54216,-10.73069 21.72441,-18.62497 3.76372,-7.10432 3.75509,-21.72303 -0.017,-28.84493 -3.83773,-7.24575 -12.12453,-15.06371 -18.58049,-17.52927 -3.05491,-1.16668 -5.55436,-2.6073 -5.55436,-3.2014 0,-0.59917 51.76766,-1.08018 116.25,-1.08018 64.48234,0 116.25,0.48101 116.25,1.08018 0,0.5941 -2.49846,2.03435 -5.55213,3.20054 -7.25286,2.7699 -15.1519,10.55062 -18.91397,18.63065 -9.23844,19.84194 4.2262,43.51219 27.15084,47.72999 6.92946,1.27493 17.16373,-1.41531 23.77451,-6.24947 22.04072,-16.11739 19.70304,-46.46086 -4.56574,-59.2639 -2.73982,-1.44539 -5.69295,-2.62799 -6.5625,-2.62799 -0.86956,0 -1.58101,-0.5625 -1.58101,-1.25 0,-0.69559 3.35402,-1.25 7.56208,-1.25 12.74862,0 20.08673,-6.15138 20.25036,-16.97542 0.101,-6.67993 -2.83974,-11.36679 -9.15129,-14.58514 -3.99817,-2.03871 -12.91558,-2.18569 -132.72365,-2.1875 C 310.36662,436.25069 270,435.84149 270,434.9502 c 0,-0.71489 1.05635,-3.38676 2.34745,-5.9375 3.56932,-7.05165 4.00024,-11.32264 2.10746,-20.8877 -0.95232,-4.8125 -1.35988,-9.09035 -0.9057,-9.50632 0.45419,-0.41598 6.73204,-1.38724 13.95079,-2.15834 7.21875,-0.77111 24.9375,-2.80948 39.375,-4.52971 36.05237,-4.29565 134.4909,-15.76918 188.125,-21.92695 24.40625,-2.8021 46.7702,-5.96627 49.69767,-7.03147 3.97029,-1.44466 6.11408,-3.28718 8.4375,-7.2518 l 3.11483,-5.31506 0,-73.65968 c 0,-83.61183 0.4477,-79.8022 -10.00852,-85.16527 l -5.44856,-2.7946 -166.23867,-0.0267 c -91.43126,-0.0147 -166.48084,-0.26895 -166.77682,-0.56494 -0.29599,-0.29597 -1.31572,-4.61894 -2.26607,-9.60657 -2.3066,-12.10554 -6.26053,-19.70384 -11.74186,-22.56445 -3.93576,-2.05404 -8.06751,-2.27309 -42.87458,-2.27309 -42.187,0 -42.56662,0.0586 -48.87103,7.55101 -5.89036,7.0003 -3.81771,17.96621 4.51975,23.91294 3.96663,2.82922 4.95098,2.92254 35.01886,3.31972 17.01562,0.22478 30.9375,0.56083 30.9375,0.74679 0,0.49696 12.70776,59.71958 19.33214,90.09454 3.14863,14.4375 7.3783,34.125 9.39925,43.75 2.02096,9.625 4.52831,21.4375 5.57191,26.25 1.04359,4.8125 4.6831,21.6875 8.0878,37.5 l 6.19035,28.75 -5.98963,11.2637 c -3.2943,6.19504 -7.25258,14.72746 -8.79618,18.96094 -3.41134,9.35591 -2.30649,14.40632 4.44917,20.33788 3.88275,3.40909 5.19725,3.81248 12.42369,3.81248 4.44482,0 8.0815,0.4297 8.0815,0.9549 0,0.5252 -2.81212,2.29001 -6.24916,3.92181 -7.1687,3.40346 -15.5543,11.90823 -18.37517,18.63628 -7.51874,17.93297 5.01193,41.83045 24.32093,46.38287 7.05369,1.66303 10.4571,1.54495 17.73084,-0.61511 z"
       style="fill:#f5908b" />
    <path
       id="path4849"
       d="m 327.46301,694.54634 c -0.35995,-0.35994 -6.827,-1.26927 -14.37124,-2.02073 C 227.11212,683.9615 150.89554,645.83609 90.780839,581.32019 40.71378,527.58755 8.4352016,455.25686 1.1228615,380.41224 -1.2280725,356.34951 0.28986931,312.19024 4.2521975,289.375 15.93289,222.11713 45.863271,161.07719 91.251024,111.94981 149.71471,48.66914 227.3418,9.8141715 312.31994,1.2973845 c 16.62818,-1.66653011 52.48193,-1.66653011 69.11012,0 84.97814,8.516787 162.60523,47.3717555 221.06891,110.6524255 75.29114,81.49458 107.06833,195.31144 84.92565,304.17955 -20.60546,101.3102 -87.14211,189.87296 -178.91761,238.14601 -39.16031,20.59797 -79.45594,32.80188 -126.63201,38.35174 -13.48586,1.58649 -53.33901,2.9922 -54.41199,1.91923 z M 270.56394,538.66549 c 7.76772,-2.90628 16.47347,-10.7834 20.19164,-18.26974 3.33147,-6.7078 3.27771,-21.68345 -0.10238,-28.52075 -3.41872,-6.9154 -12.08219,-15.00921 -18.8198,-17.58232 -3.10152,-1.18449 -5.43595,-2.35679 -5.18761,-2.60512 0.7046,-0.70461 232.10491,-1.14085 232.09959,-0.43756 -0.002,0.34375 -2.65414,1.71484 -5.89231,3.04685 -6.98294,2.87245 -15.09416,10.61537 -18.41422,17.57815 -12.85051,26.94986 15.29136,57.51236 43.23975,46.95902 7.95366,-3.00331 17.43634,-12.06211 20.63155,-19.7093 2.83794,-6.79214 2.4983,-20.41541 -0.67225,-26.9649 -3.57392,-7.38273 -12.23851,-15.51248 -19.59368,-18.38419 -3.39306,-1.32478 -5.88796,-2.47463 -5.54421,-2.55522 0.34375,-0.0806 4.138,-0.27635 8.43167,-0.43503 11.91435,-0.44034 19.485,-7.24518 19.485,-17.51398 0,-6.49481 -2.635,-11.12401 -8.29708,-14.5764 -3.89119,-2.3726 -7.33556,-2.43577 -133.05709,-2.44032 -70.98437,-0.003 -129.0625,-0.27479 -129.0625,-0.60493 0,-0.33014 1.48443,-4.21489 3.29872,-8.63278 3.27597,-7.97716 3.2861,-8.10212 1.46941,-18.13426 l -1.8293,-10.10175 3.84309,-0.61879 c 2.1137,-0.34032 10.87433,-1.44016 19.46808,-2.44407 8.59375,-1.00391 22.9375,-2.70329 31.875,-3.77639 21.9978,-2.64122 152.24719,-17.85061 172.5,-20.14305 32.79793,-3.71243 58.82953,-6.928 61.875,-7.64312 5.39414,-1.26662 11.08649,-6.43677 12.52488,-11.37589 0.92607,-3.1799 1.23589,-28.09138 0.97784,-78.62634 -0.3682,-72.1077 -0.44173,-74.0574 -2.91794,-77.3732 -1.39713,-1.87082 -4.4821,-4.44294 -6.8555,-5.71581 -4.13824,-2.21935 -11.17306,-2.3143 -171.46565,-2.3143 l -167.15035,0 -0.78387,-4.6875 c -1.17258,-7.0121 -4.34492,-17.96663 -6.29508,-21.73783 -0.94805,-1.83332 -3.66792,-4.53488 -6.04413,-6.00347 -4.21336,-2.604 -5.32129,-2.66119 -44.71781,-2.30818 -38.14503,0.34179 -40.58318,0.50137 -43.7294,2.86198 -8.08209,6.064 -9.88855,17.34855 -3.91386,24.44906 5.83652,6.93631 8.52342,7.42594 40.75124,7.42594 l 29.21068,0 2.14404,9.6875 c 1.17924,5.32812 3.81629,17.5625 5.86012,27.1875 2.04385,9.625 9.39469,43.9375 16.33521,76.25 6.94051,32.3125 15.24981,71.07416 18.46509,86.13702 l 5.84598,27.38704 -8.18325,16.22913 c -9.15671,18.15971 -10.2624,24.15369 -5.60601,30.39041 4.8773,6.53262 8.77637,8.51646 16.83005,8.56314 4.10566,0.0237 7.46548,0.42151 7.46627,0.88382 7.9e-4,0.4623 -2.09959,1.53396 -4.66751,2.38145 -7.37361,2.43351 -18.44653,14.34245 -20.84493,22.41874 -2.48815,8.37851 -2.48815,11.58999 0,19.9685 1.51304,5.09495 3.67317,8.37504 9.06875,13.77063 11.0154,11.0154 22.21538,13.72796 35.75907,8.66061 z"
       style="fill:#f4827c" />
    <path
       id="path4847"
       d="m 332.46774,694.57205 c -0.3615,-0.37304 -7.95525,-1.30635 -16.875,-2.07404 C 247.97475,686.6784 181.90435,659.99112 128.75,617.02815 114.62258,605.60941 90.972637,582.17376 79.399677,568.125 59.369491,543.80975 43.489465,518.52074 31.268084,491.47523 9.7392589,443.83262 0,398.79312 0,346.875 0,294.95687 9.7392589,249.91737 31.268084,202.27477 47.767681,165.7617 68.79179,135.30454 98.712179,104.57 172.2649,29.015864 272.86113,-7.9846546 379.375,1.3387826 427.60986,5.5609059 480.21139,22.326786 521.25,46.559137 c 62.40359,36.847868 112.45405,92.031153 141.23191,155.715633 42.42685,93.88925 42.42685,195.31121 0,289.20045 C 637.4235,546.92869 594.87693,597.5662 543.75,632.786 495.19579,666.23352 439.18279,686.66827 380,692.52551 c -17.43679,1.7257 -46.62534,2.98244 -47.53226,2.04654 z M 273.125,537.65601 c 12.88449,-6.17085 19.62211,-16.16894 20.42091,-30.303 0.87999,-15.57063 -7.88185,-28.05588 -24.17091,-34.44251 -2.91516,-1.14297 22.26926,-1.46306 113.125,-1.43779 80.29939,0.0224 115.6514,0.42665 112.96506,1.29196 -6.25025,2.01333 -15.69573,9.89552 -19.78589,16.51118 -5.10118,8.25097 -6.04268,21.60945 -2.09602,29.73966 6.2898,12.95714 19.46224,22.23449 31.56961,22.23449 13.32813,0 27.18489,-8.97475 32.80943,-21.25 3.52717,-7.6979 3.49631,-19.85491 -0.0704,-27.69541 -3.54015,-7.78228 -11.65566,-15.41873 -19.49301,-18.34232 l -6.4039,-2.38887 8.36406,-0.53259 c 9.25072,-0.58904 13.32384,-2.79206 18.07849,-9.7781 5.10741,-7.50434 2.40829,-17.24741 -6.23857,-22.51946 -3.99554,-2.43611 -6.55712,-2.484 -133.13643,-2.48857 -70.98438,-0.003 -129.0625,-0.21594 -129.0625,-0.47414 0,-0.2582 1.40625,-3.64924 3.125,-7.53564 3.54,-8.00456 3.79955,-12.08784 1.41295,-22.22836 l -1.673,-7.10845 4.50502,-0.64538 c 5.1069,-0.7316 18.32329,-2.32646 42.00503,-5.06886 8.9375,-1.03499 25.8125,-3.03086 37.5,-4.43528 20.48885,-2.46202 69.46159,-8.19135 101.875,-11.91838 16.93212,-1.94693 48.53274,-5.65744 74.375,-8.73304 8.9375,-1.06369 19.52665,-2.2825 23.53146,-2.70846 8.62593,-0.91748 14.35066,-4.34612 17.4041,-10.4236 2.00761,-3.99592 2.18533,-10.40563 2.18283,-78.72509 -0.002,-72.01168 -0.0816,-74.50445 -2.48664,-78.44893 -1.36615,-2.24066 -4.31716,-5.19167 -6.55782,-6.55782 -4.01156,-2.44588 -6.64042,-2.48398 -171.70853,-2.48858 l -167.63454,-0.005 -2.03225,-10.13233 c -2.47234,-12.32654 -6.26547,-19.5276 -12.07356,-22.92095 -4.151,-2.42518 -6.35903,-2.55646 -43.125,-2.5639 -38.49039,-0.008 -38.78161,0.0112 -43.4678,2.92535 -9.00971,5.60157 -11.41296,17.67787 -5.02806,25.26589 5.83506,6.93458 8.52792,7.42594 40.69717,7.42594 l 29.15662,0 2.70382,12.8125 c 1.48711,7.04687 4.1077,19.28125 5.82355,27.1875 1.71584,7.90625 5.69806,26.46875 8.84937,41.25 3.15132,14.78125 7.09248,33.0625 8.75813,40.625 9.15924,41.58545 21.88156,102.07004 21.87746,104.01 -0.002,1.232 -3.34055,8.78771 -7.41765,16.79047 -9.28917,18.2333 -10.15575,22.241 -6.35734,29.40109 3.48039,6.56059 10.59345,10.39161 19.48688,10.49545 l 6.16785,0.072 -6.36389,2.8946 C 233.29676,479.84426 223.75,493.86597 223.75,506.25 c 0,12.79846 10.52836,27.61856 23.04043,32.43254 9.33105,3.59007 17.34773,3.27759 26.33457,-1.02653 z"
       style="fill:#f1635c" />
    <path
       id="path4845"
       d="M 323.25812,692.96438 C 269.07452,688.06131 232.63556,677.81767 186.875,654.62468 170.51776,646.33429 143.33527,628.61385 127.90138,616.17943 113.41256,604.50643 84.465142,574.87811 73.619446,560.6207 43.630559,521.19826 22.05553,477.83621 11.295785,435.361 -6.9534558,363.32024 -2.6597627,287.37231 23.400485,221.25 41.309059,175.81081 67.137973,136.45465 101.79631,101.79631 136.43027,67.162356 173.49751,42.761734 219.54654,24.28371 261.3296,7.517484 297.94502,0.7499594 346.875,0.7499594 c 48.92998,0 85.5454,6.7675246 127.32846,23.5337506 46.04903,18.478024 83.11626,42.878646 117.75023,77.5126 52.40046,52.40046 85.93495,117.7063 97.28428,189.45369 5.14309,32.51319 6.16203,56.55926 3.52238,83.125 -5.00145,50.33505 -15.01779,85.95638 -36.00945,128.06119 -16.88139,33.86046 -36.30104,60.80296 -63.6259,88.27352 -20.50104,20.61036 -30.86721,29.19201 -54.15137,44.82929 -40.71212,27.34162 -86.502,45.50671 -133.97363,53.14801 -14.33051,2.30673 -56.64375,6.55065 -61.19275,6.1375 -1.06274,-0.0965 -10.30984,-0.93358 -20.54912,-1.86013 z M 274.375,537.80353 C 286.039,531.75764 294,518.95775 294,506.25 c 0,-15.01023 -10.75506,-29.42538 -25.24191,-33.83207 -1.7232,-0.52418 49.46066,-0.95304 113.74191,-0.95304 64.28125,0 115.46511,0.42886 113.74191,0.95304 -8.12564,2.47171 -16.08351,9.07067 -21.9564,18.20707 -3.4942,5.43589 -3.4942,25.81411 0,31.25 7.64454,11.89254 17.06269,18.12346 28.80273,19.05549 9.78792,0.77705 16.09012,-1.0503 23.76842,-6.89177 11.71743,-8.91433 17.2783,-25.20151 12.94508,-37.91469 -3.43718,-10.08433 -16.8368,-23.28509 -24.16005,-23.80149 -1.38418,-0.0976 1.18941,-0.55718 5.71909,-1.02125 9.64878,-0.98854 14.80467,-4.0892 18.00136,-10.82573 4.20356,-8.85836 0.57557,-18.30231 -8.81929,-22.9574 C 525.5486,435.04356 523.25252,435 397.7995,435 l -127.66119,0 3.2159,-7.02446 c 3.26745,-7.13704 3.42295,-11.51035 0.88954,-25.01684 l -0.73459,-3.9163 10.43293,-1.35837 c 5.7381,-0.74712 17.74541,-2.19637 26.68291,-3.22057 8.9375,-1.02419 26.09375,-3.02689 38.125,-4.45045 26.21415,-3.10169 41.0871,-4.8376 91.25,-10.6503 20.96875,-2.42977 49.65625,-5.78811 63.75,-7.46295 14.09375,-1.67485 33.5,-3.95877 43.125,-5.07539 9.625,-1.11661 18.72817,-2.81607 20.22928,-3.77657 1.50108,-0.9605 4.18562,-3.65575 5.96562,-5.98945 l 3.23636,-4.24309 -0.34064,-77.01236 -0.34062,-77.01236 -4.7082,-4.70778 -4.7082,-4.70776 -169.23883,-0.32576 -169.23882,-0.32578 -0.87155,-6.54922 c -1.1965,-8.99122 -4.99764,-19.47477 -8.40099,-23.17002 -5.67676,-6.16363 -8.18204,-6.50422 -47.84306,-6.50422 -34.32383,0 -37.31019,0.17614 -41.79699,2.46512 -7.23147,3.68923 -10.06836,7.99049 -10.06836,15.26553 0,7.24994 2.29378,12.24772 7.12361,15.52122 3.13803,2.12685 6.74358,2.43799 34.74369,2.99813 l 31.24229,0.625 4.51028,21.25 c 2.48067,11.6875 13.37608,62.51283 24.21204,112.94516 l 19.70174,91.69515 -7.7795,15.35149 c -8.78973,17.34501 -10.18964,23.7897 -6.63484,30.54435 3.48239,6.61704 7.70318,9.01215 17.22926,9.77681 l 8.39909,0.67419 -4.65196,1.59928 C 233.76345,477.70889 223.75,492.1507 223.75,506.521 c 0,13.80552 10.10937,28.05034 23.43496,33.02149 6.62144,2.47013 20.82178,1.56195 27.19004,-1.73896 z"
       style="fill:#ee433a" />
    <path
       id="path4843"
       d="m 335,693.69845 c -4.46875,-0.54011 -15.07876,-1.63184 -23.57781,-2.42605 C 280.79001,688.40991 245.49624,679.96505 217.5,668.79932 206.40132,664.37285 172.23566,646.86411 162.29347,640.50788 94.686415,597.2853 44.652485,534.11252 18.800831,459.33422 13.01672,442.60316 5.8401183,411.19784 2.9568864,390 c -2.90214124,-21.33686 -2.90214124,-64.91314 0,-86.25 C 5.6820126,283.71458 12.743875,252.22881 18.03905,236.50522 40.437914,169.9936 83.038099,111.3482 139.5991,69.159969 157.74909,55.622091 169.67215,48.292131 190.84996,37.652404 219.23985,23.389325 232.01671,18.544163 258.75,11.903777 293.1255,3.3651133 313.39239,0.8149089 346.875,0.8149089 c 33.48261,0 53.7495,2.5502043 88.125,11.0888681 26.73329,6.640385 39.51015,11.485548 67.90004,25.748627 49.24232,24.73934 88.9036,57.942883 121.50655,101.722596 18.21511,24.45951 29.04459,43.13271 40.95877,70.625 16.08064,37.10649 23.35748,69.08233 28.16213,123.75 2.51093,28.56965 -5.87628,87.37901 -17.47058,122.5 -24.69017,74.7905 -76.35895,140.62974 -144.60038,184.25788 -9.94219,6.35623 -44.10785,23.86497 -55.20653,28.29144 -27.75957,11.07134 -62.8694,19.51023 -93.125,22.38327 -8.25,0.7834 -19.81935,1.96281 -25.70965,2.6209 -5.89031,0.65807 -11.51531,1.12461 -12.5,1.03675 -0.9847,-0.0879 -5.4466,-0.60168 -9.91535,-1.14179 z M 273.125,538.85657 c 10.8816,-4.85058 19.43735,-16.53482 21.27051,-29.04827 2.0842,-14.22714 -8.84001,-31.77818 -22.90571,-36.80073 -3.87919,-1.38517 13.81601,-1.64783 111.0102,-1.64783 95.59974,0 114.84776,0.27782 111.13725,1.60416 -10.65819,3.80981 -19.86573,14.65549 -22.5232,26.53036 -5.27067,23.55181 18.46645,47.22786 41.77901,41.67153 3.56507,-0.8497 7.88819,-2.40372 9.60694,-3.45337 5.59616,-3.41758 12.6553,-10.72792 15.29321,-15.83742 3.68539,-7.13843 4.42851,-20.21993 1.57334,-27.6961 -3.643,-9.53905 -15.2146,-20.51071 -23.2239,-22.01985 -1.65971,-0.31273 0.35735,-0.6473 4.48235,-0.7435 5.03511,-0.11738 8.8389,-0.99124 11.57393,-2.6588 12.34425,-7.52638 11.80058,-25.14921 -0.97384,-31.56731 -4.05667,-2.03814 -12.98036,-2.18569 -132.29633,-2.1875 -121.36973,-0.001 -127.89901,-0.11438 -127.02764,-2.18944 5.82904,-13.88101 5.82482,-13.85431 3.7685,-23.79756 -1.06986,-5.17332 -1.79882,-9.50842 -1.61991,-9.63355 0.42844,-0.29969 65.47131,-8.07878 103.45029,-12.3726 34.41863,-3.8913 52.36835,-5.98153 71.25,-8.29698 10.65625,-1.30677 29.21875,-3.5357 41.25,-4.95319 12.03125,-1.41747 28.625,-3.37996 36.875,-4.36108 8.25,-0.98112 19.21875,-2.15403 24.375,-2.60647 11.88231,-1.04261 19.17975,-4.135 22.46199,-9.51853 2.46526,-4.04354 2.52866,-6.05955 2.52866,-80.39754 0,-73.301 -0.0939,-76.40404 -2.42844,-80.23273 -1.33564,-2.1905 -3.72416,-4.72175 -5.30782,-5.625 -2.32367,-1.32531 -35.42439,-1.7629 -171.50678,-2.26727 l -168.62737,-0.625 -2.00902,-10 c -2.60746,-12.97889 -5.95412,-19.28445 -12.09673,-22.79194 -4.76875,-2.723 -5.84632,-2.79232 -43.63949,-2.80782 -37.03028,-0.0153 -38.9388,0.0993 -43.00411,2.57758 -7.2135,4.39765 -8.78315,7.18273 -8.8293,15.6661 -0.0321,5.90187 0.55332,8.40024 2.56878,10.96248 5.24074,6.66252 7.26009,7.0186 39.80374,7.0186 l 30.03826,0 0.64355,2.8125 c 2.27139,9.92664 12.95725,59.54637 17.56492,81.5625 3.02155,14.4375 8.89927,42 13.06158,61.25 4.16233,19.25 9.26029,42.875 11.32882,52.5 2.06853,9.625 4.36365,20.03125 5.10026,23.125 1.28292,5.38825 1.11969,6.01957 -3.87824,15 -11.41666,20.51377 -13.51992,29.42485 -8.78001,37.19893 3.64972,5.98602 9.41961,9.01533 17.50675,9.19139 3.78125,0.0824 5.78052,0.42813 4.44282,0.76845 -1.33769,0.34033 -4.53295,1.94494 -7.10056,3.5658 -19.83625,12.52208 -23.40932,38.2808 -7.58637,54.69095 10.96151,11.36831 25.90828,14.55278 39.61911,8.44106 z"
       style="fill:#a800bf;fill-opacity:1" />
  </g>
</svg>
