<?xml version="1.0" encoding="UTF-8" standalone="no"?>
<svg
   xmlns:dc="http://purl.org/dc/elements/1.1/"
   xmlns:cc="http://creativecommons.org/ns#"
   xmlns:rdf="http://www.w3.org/1999/02/22-rdf-syntax-ns#"
   xmlns:svg="http://www.w3.org/2000/svg"
   xmlns="http://www.w3.org/2000/svg"
   xmlns:sodipodi="http://sodipodi.sourceforge.net/DTD/sodipodi-0.dtd"
   xmlns:inkscape="http://www.inkscape.org/namespaces/inkscape"
   viewBox="0 0 556.25 555"
   height="555"
   width="556.25"
   version="1.1"
   id="svg4190"
   inkscape:version="0.91 r13725"
   sodipodi:docname="retail-icon.svg">
  <sodipodi:namedview
     pagecolor="#ffffff"
     bordercolor="#666666"
     borderopacity="1"
     objecttolerance="10"
     gridtolerance="10"
     guidetolerance="10"
     inkscape:pageopacity="0"
     inkscape:pageshadow="2"
     inkscape:window-width="691"
     inkscape:window-height="480"
     id="namedview14"
     showgrid="false"
     inkscape:zoom="0.42522523"
     inkscape:cx="278.125"
     inkscape:cy="277.5"
     inkscape:window-x="208"
     inkscape:window-y="47"
     inkscape:window-maximized="0"
     inkscape:current-layer="svg4190" />
  <metadata
     id="metadata4196">
    <rdf:RDF>
      <cc:Work
         rdf:about="">
        <dc:format>image/svg+xml</dc:format>
        <dc:type
           rdf:resource="http://purl.org/dc/dcmitype/StillImage" />
        <dc:title />
      </cc:Work>
    </rdf:RDF>
  </metadata>
  <defs
     id="defs4194" />
  <g
     id="g4200">
    <path
       id="path4216"
       d="m 94.067797,305.72034 0,-155.21187 182.881353,0 182.88136,0 0,155.21187 0,155.21186 -182.88136,0 -182.881353,0 0,-155.21186 z"
       style="fill:#fefefe"
       inkscape:connector-curvature="0" />
    <path
       id="path4214"
       d="M 247.5,554.13127 C 245.78125,553.84074 237.90625,552.53961 230,551.2399 167.11314,540.90194 106.67121,506.03017 64.572941,455.79734 49.40581,437.6995 39.342486,422.21779 28.710171,400.625 15.288157,373.36672 7.0446155,347.62605 2.2892485,318.125 0.13243981,304.74473 0.13137076,250.26526 2.2876541,236.875 6.9608492,207.85501 15.074986,182.39722 28.184382,155.625 39.441472,132.63559 50.907275,115.27098 67.765165,95.681104 104.93661,52.485672 156.00527,21.336438 213.125,7.0191499 c 37.47067,-9.3921725 92.15794,-9.3813149 130,0.02581 55.21856,13.7267371 106.31469,44.0677461 141.39471,83.9605371 13.82146,15.717693 14.77095,16.900583 22.14309,27.586473 33.46181,48.50283 49.5872,100.12417 49.5872,158.74088 0,28.63467 -2.72699,49.19891 -9.89553,74.62232 -6.10913,21.66621 -9.65347,31.06814 -18.06187,47.9121 -14.55111,29.14924 -29.15459,49.6327 -51.4176,72.12053 -36.54705,36.91612 -78.18164,61.2134 -127.13256,74.19255 -24.94549,6.61419 -43.76682,8.8413 -73.09646,8.64942 -14.31154,-0.0936 -27.42723,-0.40795 -29.14598,-0.6985 z M 138.75,366.40625 c 0,-45.97656 0.32706,-85.22908 0.72681,-87.22781 0.39975,-1.99874 1.77386,-5.02218 3.0536,-6.71875 l 2.32678,-3.08469 39.31517,0 c 36.90739,0 39.47632,0.14584 41.9464,2.38124 2.62748,2.37782 2.63124,2.50685 2.63124,90.3125 l 0,87.93126 100.44015,0 100.44014,0 4.13242,-2.8125 c 2.27283,-1.54688 5.30914,-4.40034 6.74735,-6.34104 2.59509,-3.50175 2.61753,-4.28761 2.95645,-103.49959 l 0.34152,-99.97103 -4.71652,0.99957 c -8.14407,1.726 -21.7075,0.768 -29.28219,-2.06824 -13.90864,-5.20788 -26.79918,-18.75951 -29.81923,-31.3485 -1.44723,-6.0327 -3.74009,-7.41046 -3.74009,-2.24737 0,5.10711 -7.90776,17.45215 -15.54276,24.26424 -17.91506,15.98417 -45.65485,16.65799 -63.95265,1.55343 -8.07963,-6.6696 -13.89092,-15.01822 -16.35578,-23.49706 l -2.00292,-6.8898 -1.492,4.99145 c -9.89075,33.08905 -49.45274,47.17083 -76.90389,27.3733 -10.62913,-7.66562 -15.20474,-14.02054 -20.61531,-28.63186 -0.77362,-2.08914 -1.23938,-1.57556 -2.83407,3.125 -4.69639,13.84324 -16.47121,26.14397 -29.98551,31.32483 -7.4453,2.85422 -22.36585,3.88813 -29.37761,2.03569 l -3.4375,-0.90814 0,99.83895 0,99.83896 2.83742,4.24736 c 3.56495,5.33641 9.97918,8.6179 16.85008,8.62041 l 5.3125,0.002 0,-83.59375 z m 115.21789,-0.54931 c -2.68225,-2.85514 -2.71789,-3.45932 -2.71789,-46.08143 0,-41.79976 0.0832,-43.29426 2.59072,-46.48193 L 256.43145,270 l 75.44355,0 75.44355,0 2.59073,3.29358 c 2.50636,3.18632 2.59072,4.68685 2.59072,46.08142 0,41.39457 -0.0844,42.8951 -2.59073,46.08142 l -2.59072,3.29358 -75.31639,0 -75.31637,0 -2.7179,-2.89306 z"
       style="fill:#f7f39e" />
    <path
       id="path4212"
       d="M 247.5,554.13127 C 245.78125,553.84074 237.90625,552.53961 230,551.2399 167.11314,540.90194 106.67121,506.03017 64.572941,455.79734 49.40581,437.6995 39.342486,422.21779 28.710171,400.625 15.288157,373.36672 7.0446155,347.62605 2.2892485,318.125 0.13243981,304.74473 0.13137076,250.26526 2.2876541,236.875 6.9608492,207.85501 15.074986,182.39722 28.184382,155.625 39.441472,132.63559 50.907275,115.27098 67.765165,95.681104 104.93661,52.485672 156.00527,21.336438 213.125,7.0191499 c 37.47067,-9.3921725 92.15794,-9.3813149 130,0.02581 55.21856,13.7267371 106.31469,44.0677461 141.39471,83.9605371 13.82146,15.717693 14.77095,16.900583 22.14309,27.586473 33.46181,48.50283 49.5872,100.12417 49.5872,158.74088 0,28.63467 -2.72699,49.19891 -9.89553,74.62232 -6.10913,21.66621 -9.65347,31.06814 -18.06187,47.9121 -14.55111,29.14924 -29.15459,49.6327 -51.4176,72.12053 -36.54705,36.91612 -78.18164,61.2134 -127.13256,74.19255 -24.94549,6.61419 -43.76682,8.8413 -73.09646,8.64942 -14.31154,-0.0936 -27.42723,-0.40795 -29.14598,-0.6985 z M 140,363.66782 c 0,-86.53046 0.15807,-89.97918 4.24962,-92.71118 0.75647,-0.5051 18.9535,-0.92698 40.43788,-0.9375 37.4094,-0.0184 39.1683,0.0866 41.5625,2.48086 2.45238,2.45238 2.5,4.16666 2.5,90 l 0,87.5 100.44015,0 100.44014,0 4.13242,-2.8125 c 2.27283,-1.54688 5.30914,-4.4004 6.74735,-6.34118 2.5955,-3.50243 2.61743,-4.27518 2.94916,-103.96773 l 0.33423,-100.43907 -4.70923,1.30632 c -7.58266,2.10338 -23.61121,0.48207 -31.8639,-3.22309 -13.19763,-5.92526 -25.42825,-20.87926 -27.97101,-34.19931 -0.89862,-4.70738 -2.99931,-4.2382 -2.99931,0.66988 0,9.8251 -14.34908,27.64247 -27.0696,33.61253 -6.5638,3.08056 -8.70121,3.43107 -21.0554,3.45277 -12.28206,0.0215 -14.50898,-0.32955 -20.85926,-3.28885 -7.85613,-3.66105 -19.3844,-14.23515 -22.91653,-21.01977 -1.25271,-2.40625 -3.23341,-7.43821 -4.40155,-11.18213 -2.18201,-6.99337 -2.34659,-6.92433 -4.30745,1.80713 -1.46325,6.51566 -9.33726,17.94451 -16.23317,23.56189 -23.66075,19.27391 -61.11718,11.53241 -75.02379,-15.50593 -1.61074,-3.13171 -3.31851,-7.77234 -3.79505,-10.3125 -1.06766,-5.69111 -2.51386,-5.92767 -3.5822,-0.58595 -0.44358,2.21788 -2.02479,6.57725 -3.5138,9.6875 -5.86869,12.25851 -14.75903,20.16295 -28.13466,25.01465 -6.5788,2.38631 -9.59491,2.73755 -19.709,2.29519 l -11.94154,-0.52228 0.334,100.89588 0.334,100.89589 3.125,3.3847 c 4.2235,4.5745 9.44626,6.7084 16.5625,6.76704 L 140,450 l 0,-86.33218 z m 114.31819,2.01399 -3.06819,-3.06817 0,-43.23864 0,-43.23864 3.06819,-3.06817 3.06817,-3.06819 74.4915,0 74.49151,0 3.06532,3.30752 3.06531,3.30754 0,42.99929 0,42.99929 -3.06819,3.06817 -3.06817,3.06819 -74.48864,0 -74.48864,0 -3.06817,-3.06819 z M 277.5,139.375 l 0,-50.625 -31.16576,0 -31.16577,0 -0.81505,2.8125 c -0.44827,1.546875 -3.91346,11.25 -7.70041,21.5625 -3.78696,10.3125 -8.81681,24.09375 -11.17746,30.625 -5.44516,15.06521 -9.46679,25.95909 -13.3822,36.25 -1.70024,4.46875 -2.8336,8.54687 -2.51858,9.0625 0.31503,0.51562 22.47708,0.9375 49.249,0.9375 l 48.67623,0 0,-50.625 z m 198.75,49.91273 c 0,-0.39177 -1.82813,-3.2751 -4.0625,-6.40744 -2.23438,-3.13233 -4.90625,-6.96579 -5.9375,-8.51879 -1.03125,-1.553 -4.79466,-6.68529 -8.36315,-11.40508 -3.56848,-4.71977 -8.12415,-10.83142 -10.12371,-13.58142 -16.7578,-23.04699 -29.5131,-40.4294 -37.8368,-51.5625 l -6.77563,-9.0625 -31.09615,0 c -29.02916,0 -31.05302,0.145404 -30.44742,2.1875 0.8818,2.973475 19.11565,52.84595 22.73635,62.1875 1.5988,4.125 5.29871,14.10937 8.22201,22.1875 l 5.31509,14.6875 49.1847,0 c 27.0516,0 49.18471,-0.32052 49.18471,-0.71227 z"
       style="fill:#fab129" />
    <path
       id="path4210"
       d="M 247.5,554.13127 C 245.78125,553.84074 237.90625,552.53961 230,551.2399 167.11314,540.90194 106.67121,506.03017 64.572941,455.79734 49.40581,437.6995 39.342486,422.21779 28.710171,400.625 15.288157,373.36672 7.0446155,347.62605 2.2892485,318.125 0.13243981,304.74473 0.13137076,250.26526 2.2876541,236.875 6.9608492,207.85501 15.074986,182.39722 28.184382,155.625 39.441472,132.63559 50.907275,115.27098 67.765165,95.681104 104.93661,52.485672 156.00527,21.336438 213.125,7.0191499 c 37.47067,-9.3921725 92.15794,-9.3813149 130,0.02581 55.21856,13.7267371 106.31469,44.0677461 141.39471,83.9605371 13.82146,15.717693 14.77095,16.900583 22.14309,27.586473 33.46181,48.50283 49.5872,100.12417 49.5872,158.74088 0,28.63467 -2.72699,49.19891 -9.89553,74.62232 -6.10913,21.66621 -9.65347,31.06814 -18.06187,47.9121 -14.55111,29.14924 -29.15459,49.6327 -51.4176,72.12053 -36.54705,36.91612 -78.18164,61.2134 -127.13256,74.19255 -24.94549,6.61419 -43.76682,8.8413 -73.09646,8.64942 -14.31154,-0.0936 -27.42723,-0.40795 -29.14598,-0.6985 z M 140,363.66782 c 0,-86.53046 0.15807,-89.97918 4.24962,-92.71118 0.75647,-0.5051 18.9535,-0.92698 40.43788,-0.9375 37.4094,-0.0184 39.1683,0.0866 41.5625,2.48086 2.45238,2.45238 2.5,4.16666 2.5,90 l 0,87.5 100.44015,0 100.44014,0 4.13242,-2.8125 c 2.27283,-1.54688 5.30914,-4.4004 6.74735,-6.34118 2.59559,-3.50255 2.61741,-4.27307 2.94927,-104.11627 l 0.33432,-100.5876 5.66811,-2.42964 c 7.50252,-3.21595 18.66737,-14.5502 22.41244,-22.7525 1.65374,-3.62192 3.51006,-9.81427 4.12518,-13.76079 1.08985,-6.99236 1.00363,-7.33992 -3.378,-13.61865 -2.473,-3.54373 -5.34013,-7.70312 -6.37138,-9.24308 -1.03125,-1.53997 -4.79466,-6.66158 -8.36315,-11.38137 -3.56848,-4.71977 -8.12415,-10.83142 -10.12371,-13.58142 -16.7578,-23.04699 -29.5131,-40.4294 -37.8368,-51.5625 l -6.77563,-9.0625 -31.09615,0 c -29.02916,0 -31.05302,0.145404 -30.44742,2.1875 0.8818,2.973475 19.11565,52.84595 22.73635,62.1875 1.5988,4.125 5.30877,14.13654 8.24439,22.24788 5.26472,14.54692 5.31925,14.86544 4.0017,23.37756 -2.37234,15.32665 -12.85254,28.88389 -27.83958,36.01347 -6.10801,2.90569 -8.40896,3.27325 -20.625,3.29472 -12.28206,0.0215 -14.50897,-0.32955 -20.85926,-3.28885 C 299.08131,230.95574 287.77791,220.40772 284.07086,213.125 277.73391,200.67563 277.5,198.13119 277.5,141.64812 l 0,-52.89812 -31.16576,0 -31.16577,0 -0.81505,2.8125 c -0.44827,1.546875 -3.91346,11.25 -7.70041,21.5625 -3.78696,10.3125 -8.81681,24.09375 -11.17746,30.625 -5.53258,15.30706 -9.49896,26.04695 -13.50788,36.57565 -1.76972,4.64786 -3.21767,10.03014 -3.21767,11.96062 0,4.37769 -3.28837,15.62723 -6.06226,20.739 -6.15857,11.34914 -14.79921,18.69013 -27.3302,23.21937 -6.56855,2.37415 -9.61068,2.72688 -19.709,2.28521 l -11.94153,-0.52228 0.33399,100.89588 0.334,100.89589 3.125,3.3847 c 4.2235,4.5745 9.44626,6.7084 16.5625,6.76704 L 140,450 l 0,-86.33218 z m 114.31819,2.01399 -3.06819,-3.06817 0,-43.23864 0,-43.23864 3.06819,-3.06817 3.06817,-3.06819 74.4915,0 74.49151,0 3.06532,3.30752 3.06531,3.30754 0,42.99929 0,42.99929 -3.06819,3.06817 -3.06817,3.06819 -74.48864,0 -74.48864,0 -3.06817,-3.06819 z"
       style="fill:#f17557" />
    <path
       id="path4208"
       d="M 247.5,554.13127 C 245.78125,553.84074 237.90625,552.53961 230,551.2399 167.11314,540.90194 106.67121,506.03017 64.572941,455.79734 49.40581,437.6995 39.342486,422.21779 28.710171,400.625 15.288157,373.36672 7.0446155,347.62605 2.2892485,318.125 0.13243981,304.74473 0.13137076,250.26526 2.2876541,236.875 6.9608492,207.85501 15.074986,182.39722 28.184382,155.625 39.441472,132.63559 50.907275,115.27098 67.765165,95.681104 104.93661,52.485672 156.00527,21.336438 213.125,7.0191499 c 37.47067,-9.3921725 92.15794,-9.3813149 130,0.02581 55.21856,13.7267371 106.31469,44.0677461 141.39471,83.9605371 13.82146,15.717693 14.77095,16.900583 22.14309,27.586473 33.46181,48.50283 49.5872,100.12417 49.5872,158.74088 0,28.63467 -2.72699,49.19891 -9.89553,74.62232 -6.10913,21.66621 -9.65347,31.06814 -18.06187,47.9121 -14.55111,29.14924 -29.15459,49.6327 -51.4176,72.12053 -36.54705,36.91612 -78.18164,61.2134 -127.13256,74.19255 -24.94549,6.61419 -43.76682,8.8413 -73.09646,8.64942 -14.31154,-0.0936 -27.42723,-0.40795 -29.14598,-0.6985 z M 140.0278,363.4375 c 0.0267,-83.42921 0.11475,-86.67561 2.42859,-89.6875 l 2.4008,-3.125 39.40176,0 c 36.15587,0 39.58565,0.18385 41.63391,2.23169 2.0937,2.09328 2.25306,7.65569 2.56945,89.6875 L 228.79963,450 l 100.41533,0 100.41533,0 4.13242,-2.8125 c 2.27283,-1.54688 5.30914,-4.4004 6.74735,-6.34118 2.59548,-3.50239 2.61743,-4.27587 2.94914,-103.91982 l 0.33419,-100.39118 4.04081,-1.60138 c 4.33633,-1.71852 12.97741,-8.24212 17.94459,-13.54729 4.56901,-4.87993 9.08276,-14.89148 10.60172,-23.51476 l 1.35037,-7.66612 -5.42794,-7.29038 c -2.98536,-4.00972 -5.99044,-8.21962 -6.67794,-9.35534 -0.6875,-1.13571 -4.16966,-5.91696 -7.73815,-10.625 C 454.31837,158.22702 449.7627,152.125 447.76314,149.375 429.90699,124.81745 417.42749,107.83227 409.75761,97.647694 404.81759,91.087997 403.75,88.744509 403.75,84.460194 c 0,-2.865606 -0.675,-5.885194 -1.5,-6.710194 -2.17561,-2.175614 -246.07439,-2.175614 -248.25,0 -0.825,0.825 -1.5,3.791185 -1.5,6.591522 0,4.658417 -2.25951,8.174984 -26.5625,41.340178 -14.60937,19.93676 -27.572694,37.64246 -28.807376,39.34599 -1.234681,1.70352 -5.579391,7.59731 -9.654909,13.09731 -4.075517,5.5 -7.424697,10.42187 -7.442624,10.9375 C 80.014666,189.57812 102.1246,190 129.16578,190 l 49.16577,0 -0.94787,6.98494 c -2.14252,15.78827 -15.00476,32.28126 -29.63775,38.00389 -8.35358,3.26688 -21.166,4.49481 -28.70489,2.75104 l -5.33395,-1.23377 0.33395,101.64661 0.33396,101.64662 3.125,3.38471 c 4.2235,4.5745 9.44626,6.7084 16.5625,6.76704 L 140,450 l 0.0277,-86.5625 z m 114.29039,2.24431 -3.06819,-3.06817 0,-43.23864 0,-43.23864 3.06819,-3.06817 3.06817,-3.06819 74.4915,0 74.49151,0 3.06532,3.30752 3.06531,3.30754 0,42.99929 0,42.99929 -3.06819,3.06817 -3.06817,3.06819 -74.48864,0 -74.48864,0 -3.06817,-3.06819 z M 316.875,237.62712 c -19.91294,-5.44854 -35.49421,-22.47401 -37.71304,-41.20853 L 278.40177,190 l 49.54912,0 c 27.25201,0 49.53935,0.42187 49.52741,0.9375 -0.11187,4.83225 -4.25145,18.88501 -6.8886,23.38496 -4.41559,7.53464 -14.62045,16.51946 -23.07777,20.3187 -7.44917,3.34635 -23.57558,4.91808 -30.63693,2.98596 z m -103.69319,128.05469 3.06819,-3.06817 0,-39.38784 c 0,-37.66229 -0.10588,-39.44453 -2.41783,-40.68182 -3.1078,-1.66324 -53.77642,-1.72855 -58.1258,-0.0749 l -3.20637,1.21903 0,39.46275 0,39.46276 3.06819,3.06817 c 3.0589,3.0589 3.14603,3.06819 28.80681,3.06819 25.66077,0 25.74791,-0.009 28.80681,-3.06819 z"
       style="fill:#6655a4" />
    <path
       id="path4206"
       d="M 247.5,554.13127 C 245.78125,553.84074 237.90625,552.53961 230,551.2399 167.11314,540.90194 106.67121,506.03017 64.572941,455.79734 49.40581,437.6995 39.342486,422.21779 28.710171,400.625 15.288157,373.36672 7.0446155,347.62605 2.2892485,318.125 0.13243981,304.74473 0.13137076,250.26526 2.2876541,236.875 6.9608492,207.85501 15.074986,182.39722 28.184382,155.625 39.441472,132.63559 50.907275,115.27098 67.765165,95.681104 104.93661,52.485672 156.00527,21.336438 213.125,7.0191499 c 37.47067,-9.3921725 92.15794,-9.3813149 130,0.02581 55.21856,13.7267371 106.31469,44.0677461 141.39471,83.9605371 13.82146,15.717693 14.77095,16.900583 22.14309,27.586473 33.46181,48.50283 49.5872,100.12417 49.5872,158.74088 0,28.63467 -2.72699,49.19891 -9.89553,74.62232 -6.10913,21.66621 -9.65347,31.06814 -18.06187,47.9121 -14.55111,29.14924 -29.15459,49.6327 -51.4176,72.12053 -36.54705,36.91612 -78.18164,61.2134 -127.13256,74.19255 -24.94549,6.61419 -43.76682,8.8413 -73.09646,8.64942 -14.31154,-0.0936 -27.42723,-0.40795 -29.14598,-0.6985 z M 432.53755,448.4375 c 3.062,-1.54688 6.83744,-4.72381 8.38986,-7.05985 l 2.82259,-4.24736 0,-100.13496 0,-100.13495 6.55586,-3.00757 c 8.01533,-3.6771 18.27835,-13.92656 22.11243,-22.0832 1.56633,-3.33225 3.4368,-9.6126 4.15658,-13.95635 l 1.30869,-7.89772 -6.12927,-8.72835 c -3.37111,-4.8006 -7.53554,-10.63449 -9.25429,-12.9642 -1.71875,-2.32971 -6.75305,-9.21108 -11.18734,-15.29191 C 446.87837,146.85024 439.32555,136.53125 434.5286,130 429.73164,123.46875 422.70901,113.90625 418.92276,108.75 415.1365,103.59375 410.45496,97.298609 408.51932,94.760797 405.99623,91.452751 405,88.710484 405,85.073297 405,81.666666 404.17871,79.178706 402.5,77.5 400.03419,75.034188 398.33334,75 278.125,75 c -120.20834,0 -121.90919,0.03419 -124.375,2.5 -1.68553,1.685525 -2.5,4.166666 -2.5,7.615768 0,3.944667 -1.02129,6.448475 -4.46133,10.9375 -2.45372,3.201952 -10.46934,14.056832 -17.8125,24.121952 -7.34314,10.06512 -18.41367,25.22159 -24.60117,33.68104 -6.1875,8.45945 -13.310741,18.22435 -15.829425,21.69978 -2.518684,3.47543 -5.753059,7.81417 -7.1875,9.64166 -1.434441,1.82749 -2.608075,3.65561 -2.608075,4.0625 0,0.40689 22.40585,0.7398 49.79077,0.7398 l 49.79078,0 -0.94787,6.98494 c -2.19294,16.1599 -15.10685,32.44693 -30.29954,38.21381 -7.9973,3.03564 -21.86631,3.95006 -30.55024,2.01428 l -4.0911,-0.91197 0.3411,101.13342 c 0.33675,99.84371 0.37392,101.17842 2.91428,104.66197 1.41525,1.9407 5.05006,4.79417 8.07736,6.34105 l 5.50419,2.8125 148.84527,0 148.84528,0 5.56727,-2.8125 z m -292.50975,-85 c 0.0267,-83.42921 0.11475,-86.67561 2.42859,-89.6875 l 2.4008,-3.125 39.40176,0 c 36.15587,0 39.58565,0.18385 41.63391,2.23169 2.0937,2.09328 2.25306,7.65569 2.56945,89.6875 L 228.79963,450 184.39981,450 140,450 l 0.0277,-86.5625 z m 73.15401,2.24431 3.06819,-3.06817 0,-39.38784 c 0,-37.66229 -0.10588,-39.44453 -2.41783,-40.68182 -3.1078,-1.66324 -53.77642,-1.72855 -58.1258,-0.0749 l -3.20637,1.21903 0,39.46275 0,39.46276 3.06819,3.06817 c 3.0589,3.0589 3.14603,3.06819 28.80681,3.06819 25.66077,0 25.74791,-0.009 28.80681,-3.06819 z M 316.875,237.62712 c -19.91294,-5.44854 -35.49421,-22.47401 -37.71304,-41.20853 L 278.40177,190 l 49.54912,0 c 27.25201,0 49.53935,0.42187 49.52741,0.9375 -0.11187,4.83225 -4.25145,18.88501 -6.8886,23.38496 -4.41559,7.53464 -14.62045,16.51946 -23.07777,20.3187 -7.44917,3.34635 -23.57558,4.91808 -30.63693,2.98596 z M 110,235 c -1.03125,-0.66645 -2.4375,-1.21171 -3.125,-1.21171 -0.6875,0 -0.40625,0.54526 0.625,1.21171 1.03125,0.66645 2.4375,1.21171 3.125,1.21171 0.6875,0 0.40625,-0.54526 -0.625,-1.21171 z m -7.5,-2.97195 c 0,-0.25956 -0.98437,-1.24394 -2.1875,-2.1875 -1.98257,-1.55484 -2.026782,-1.51062 -0.471944,0.47195 1.632964,2.08219 2.659444,2.74435 2.659444,1.71555 z m -5,-3.66919 c 0,-0.21512 -1.828125,-2.04325 -4.0625,-4.0625 l -4.0625,-3.67136 3.671364,4.0625 C 96.46859,228.47432 97.5,229.32456 97.5,228.35886 Z M 80.853892,202.26562 c -0.399032,-0.99716 -0.695228,-0.70097 -0.755208,0.75522 -0.05428,1.3177 0.24116,2.05599 0.656525,1.64062 0.415364,-0.41537 0.459772,-1.4935 0.09869,-2.39584 z m -1.237653,-8.17933 c -0.31693,-1.21621 -0.597079,-0.52379 -0.622553,1.53871 -0.02548,2.0625 0.233832,3.05757 0.576235,2.21129 0.342404,-0.84629 0.363246,-2.53379 0.04631,-3.75 z"
       style="fill:#eb164a" />
    <path
       id="path4204"
       d="M 247.5,554.13127 C 245.78125,553.84074 237.90625,552.53961 230,551.2399 167.11314,540.90194 106.67121,506.03017 64.572941,455.79734 49.40581,437.6995 39.342486,422.21779 28.710171,400.625 15.288157,373.36672 7.0446155,347.62605 2.2892485,318.125 0.13243981,304.74473 0.13137076,250.26526 2.2876541,236.875 6.9608492,207.85501 15.074986,182.39722 28.184382,155.625 39.441472,132.63559 50.907275,115.27098 67.765165,95.681104 104.93661,52.485672 156.00527,21.336438 213.125,7.0191499 c 37.47067,-9.3921725 92.15794,-9.3813149 130,0.02581 55.21856,13.7267371 106.31469,44.0677461 141.39471,83.9605371 13.82146,15.717693 14.77095,16.900583 22.14309,27.586473 33.46181,48.50283 49.5872,100.12417 49.5872,158.74088 0,28.63467 -2.72699,49.19891 -9.89553,74.62232 -6.10913,21.66621 -9.65347,31.06814 -18.06187,47.9121 -14.55111,29.14924 -29.15459,49.6327 -51.4176,72.12053 -36.54705,36.91612 -78.18164,61.2134 -127.13256,74.19255 -24.94549,6.61419 -43.76682,8.8413 -73.09646,8.64942 -14.31154,-0.0936 -27.42723,-0.40795 -29.14598,-0.6985 z M 432.53755,448.4375 c 3.062,-1.54688 6.83744,-4.72381 8.38986,-7.05985 l 2.82259,-4.24736 0,-100.13496 0,-100.13495 6.55586,-3.00757 c 8.01533,-3.6771 18.27835,-13.92656 22.11243,-22.0832 1.56633,-3.33225 3.4368,-9.6126 4.15658,-13.95635 l 1.30869,-7.89772 -6.12927,-8.72835 c -3.37111,-4.8006 -7.53554,-10.63449 -9.25429,-12.9642 -1.71875,-2.32971 -6.75305,-9.21108 -11.18734,-15.29191 C 446.87837,146.85024 439.32555,136.53125 434.5286,130 429.73164,123.46875 422.70901,113.90625 418.92276,108.75 415.1365,103.59375 410.45496,97.298609 408.51932,94.760797 405.99623,91.452751 405,88.710484 405,85.073297 405,81.666666 404.17871,79.178706 402.5,77.5 400.03419,75.034188 398.33334,75 278.125,75 c -120.20834,0 -121.90919,0.03419 -124.375,2.5 -1.68553,1.685525 -2.5,4.166666 -2.5,7.615768 0,3.944667 -1.02129,6.448475 -4.46133,10.9375 -2.45372,3.201952 -10.46934,14.056832 -17.8125,24.121952 -7.34314,10.06512 -18.41367,25.22159 -24.60117,33.68104 -6.1875,8.45945 -13.310741,18.22435 -15.829425,21.69978 -2.518684,3.47543 -5.829006,7.90588 -7.35627,9.84545 -8.551539,10.86012 7.452421,41.6426 25.533215,49.1113 l 5.71863,2.36221 0.34192,100.84645 c 0.33755,99.55333 0.37493,100.89169 2.91511,104.375 1.41525,1.9407 5.05006,4.79417 8.07736,6.34105 l 5.50418,2.8125 148.84528,0 148.84528,0 5.56727,-2.8125 z"
       style="fill:#105984" />
    <path
       id="path4202"
       d="M 237.77071,552.66871 224.91644,550.625 174.33321,500.19454 C 146.51245,472.45779 123.75,449.54984 123.75,449.28799 c 0,-0.26187 1.44286,0.0725 3.20638,0.74295 2.01972,0.7679 58.34302,1.2089 152.18749,1.19161 144.20844,-0.0266 149.15049,-0.10438 154.2678,-2.42733 3.05239,-1.38562 6.35218,-4.1475 7.80783,-6.53505 2.47297,-4.05615 2.52125,-6.05815 2.52582,-104.76748 l 0.005,-100.63232 6.55586,-3.00756 c 7.97133,-3.65691 18.27278,-13.91471 22.05543,-21.96193 1.53497,-3.26554 3.48403,-9.66752 4.33122,-14.22662 1.40715,-7.57246 1.67334,-8.04843 3.07811,-5.50439 1.39053,2.51823 7.52466,10.99179 17.89163,24.71513 2.07741,2.75 7.66476,10.34375 12.41634,16.875 4.75156,6.53125 9.34957,12.81477 10.2178,13.9634 0.86823,1.14861 6.35986,8.66292 12.20361,16.69847 5.84375,8.03554 13.68325,18.57968 17.4211,23.43142 l 6.7961,8.82132 -2.69013,18.85519 c -2.53741,17.78476 -9.53998,46.83187 -13.28457,55.1052 -0.9335,2.0625 -2.40025,6 -3.25944,8.75 -2.14904,6.87841 -14.52219,31.63595 -21.86507,43.75 -14.42091,23.79115 -41.28215,54.24469 -62.56153,70.92822 -40.55918,31.79939 -83.90672,50.70654 -133.91048,58.40854 -21.03095,3.23937 -61.65253,3.34266 -81.37527,0.20695 z M 1.3486842,311.77084 c 0.05998,-1.45619 0.3561754,-1.75238 0.7552083,-0.75522 0.3610882,0.90234 0.3166804,1.98047 -0.098684,2.39584 -0.4153646,0.41536 -0.7108005,-0.32292 -0.6565241,-1.64062 z M 0.2436859,296.875 c 0.0254746,-2.0625 0.30562324,-2.75492 0.6225525,-1.53871 0.3169293,1.21621 0.2960864,2.90371 -0.0463175,3.75 -0.34240385,0.84628 -0.60170961,-0.14879 -0.576235,-2.21129 z m 0,-38.75 c 0.0254746,-2.0625 0.30562324,-2.75492 0.6225525,-1.53871 0.3169293,1.21621 0.2960864,2.90371 -0.0463175,3.75 -0.34240385,0.84628 -0.60170961,-0.14879 -0.576235,-2.21129 z m 1.1049983,-15.10416 c 0.05998,-1.45619 0.3561754,-1.75238 0.7552083,-0.75522 0.3610882,0.90234 0.3166804,1.98047 -0.098684,2.39584 -0.4153646,0.41537 -0.7108005,-0.32292 -0.6565241,-1.64062 z m 550.0000058,-16.25 c 0.06,-1.45619 0.35617,-1.75238 0.7552,-0.75522 0.36108,0.90234 0.31668,1.98047 -0.0986,2.39584 -0.41536,0.41537 -0.7108,-0.32292 -0.65652,-1.64062 z M 491.09055,99.0625 c -1.55484,-1.98257 -1.51063,-2.026782 0.47195,-0.471944 2.08219,1.632964 2.74435,2.659444 1.71555,2.659444 -0.25956,0 -1.24394,-0.98437 -2.1875,-2.1875 z M 77.5,84.528056 c 0,-0.25957 0.984375,-1.243945 2.1875,-2.1875 1.98257,-1.554838 2.026782,-1.510626 0.471944,0.471944 C 78.526482,84.894685 77.5,85.556849 77.5,84.528056 Z M 476.09055,82.8125 c -1.55484,-1.98257 -1.51063,-2.026782 0.47195,-0.471944 C 478.64469,83.973517 479.30685,85 478.27805,85 c -0.25956,0 -1.24394,-0.984375 -2.1875,-2.1875 z M 82.5,79.528056 c 0,-0.25957 0.984375,-1.243945 2.1875,-2.1875 1.98257,-1.554838 2.026782,-1.510626 0.471944,0.471944 C 83.526482,79.894685 82.5,80.556849 82.5,79.528056 Z M 466.09055,72.8125 c -1.55484,-1.98257 -1.51063,-2.026782 0.47195,-0.471944 C 468.64469,73.973517 469.30685,75 468.27805,75 c -0.25956,0 -1.24394,-0.984375 -2.1875,-2.1875 z M 224.76562,4.1461075 c 0.90234,-0.3610883 1.98047,-0.3166804 2.39584,0.098684 0.41537,0.4153647 -0.32292,0.7108005 -1.64062,0.6565242 -1.45619,-0.05998 -1.75238,-0.3561754 -0.75522,-0.7552083 z m 87.5,-2.5 c 0.90234,-0.3610883 1.98047,-0.3166804 2.39584,0.098684 0.41536,0.4153647 -0.32292,0.7108006 -1.64062,0.6565242 -1.45619,-0.05998 -1.75238,-0.3561754 -0.75522,-0.7552083 z M 254.70207,0.36592391 c 1.55489,-0.29899151 3.80489,-0.28763987 5.00001,0.0252259 1.19511,0.31286575 -0.0771,0.55749517 -2.82708,0.54362095 -2.75,-0.0138743 -3.72781,-0.26985532 -2.17293,-0.56884684 z m 42.50001,0 c 1.55488,-0.29899151 3.80488,-0.28763987 5,0.0252259 1.19511,0.31286575 -0.0771,0.55749517 -2.82708,0.54362095 -2.75,-0.0138743 -3.72781,-0.26985532 -2.17292,-0.56884684 z"
       style="fill:#11536d" />
  </g>
</svg>
