<?xml version="1.0" encoding="UTF-8" standalone="no"?>
<svg
   xmlns:dc="http://purl.org/dc/elements/1.1/"
   xmlns:cc="http://creativecommons.org/ns#"
   xmlns:rdf="http://www.w3.org/1999/02/22-rdf-syntax-ns#"
   xmlns:svg="http://www.w3.org/2000/svg"
   xmlns="http://www.w3.org/2000/svg"
   viewBox="0 0 512 512"
   height="512"
   width="512"
   version="1.1"
   id="svg4186">
  <metadata
     id="metadata4192">
    <rdf:RDF>
      <cc:Work
         rdf:about="">
        <dc:format>image/svg+xml</dc:format>
        <dc:type
           rdf:resource="http://purl.org/dc/dcmitype/StillImage" />
        <dc:title></dc:title>
      </cc:Work>
    </rdf:RDF>
  </metadata>
  <defs
     id="defs4190" />
  <g
     id="g4243">
    <ellipse
       style="opacity:1;fill:#ffffff;fill-opacity:1;stroke:none"
       id="path4241"
       cx="249.73279"
       cy="254.87868"
       rx="217.22322"
       ry="227.56715" />
    <path
       id="path4210"
       d="M 230.5,511.0128 C 171.11623,504.6849 117.05055,478.91722 75.066667,436.93333 61.59357,423.46024 53.418892,413.39546 41.86193,396.0512 26.009299,372.26015 14.546222,346.12853 7.6234548,318 2.503713,297.19751 0.91782477,285.1657 0.30810986,262.5 -0.66503509,226.32405 4.7965442,194.79834 17.718933,162 48.750611,83.238447 117.51073,24.442884 200.20265,5.9614018 231.10927,-0.94616668 268.45594,-1.8513022 299.70306,3.5499059 399.09558,20.730362 479.9335,95.784002 504.29234,193.5 c 5.90655,23.69426 7.18565,34.81975 7.18565,62.5 0,27.68025 -1.2791,38.80574 -7.18565,62.5 -6.90487,27.69903 -18.53104,54.10387 -34.13006,77.51466 -11.58089,17.38043 -19.74877,27.43849 -33.22895,40.91867 -38.59895,38.59896 -86.03802,62.86983 -140.93333,72.10462 -14.06628,2.3663 -51.29328,3.48871 -65.5,1.97485 z m -51.15518,-81.07097 c 43.31317,-10.45443 69.65913,-56.1761 57.18556,-99.24173 l -2.30123,-7.9451 44.30299,-44.27036 44.30299,-44.27037 5.60075,1.84769 c 31.52994,10.4018 68.4135,-2.02607 88.20831,-29.72168 11.54786,-16.15702 17.15653,-37.65126 14.4404,-55.34028 -1.43596,-9.35179 -4.11866,-19.16517 -5.13558,-18.78604 -0.42197,0.15732 -12.92991,12.30166 -27.79542,26.98742 -30.31388,29.94734 -32.86661,31.80833 -44.65359,32.55339 -8.98804,0.56814 -16.43189,-2.08984 -23.40127,-8.35591 C 322.81651,176.85152 319.5,169.52964 319.5,160 c 0,-13.6212 0.17954,-13.87815 32.23387,-46.13263 15.65023,-15.747945 28.07498,-28.856863 27.61055,-29.130928 -1.96192,-1.157748 -15.44971,-3.697446 -22.84894,-4.302366 -5.56222,-0.454736 -10.85294,-0.156461 -17.38485,0.980104 -17.96013,3.125098 -30.46451,9.710128 -43.64753,22.98557 -7.23318,7.28389 -9.98456,10.94178 -13.78486,18.32659 -10.12365,19.6725 -12.16397,41.36606 -5.72596,60.88096 l 1.78612,5.41408 -44.55687,44.55687 c -36.69205,36.69205 -44.92089,44.45168 -46.6192,43.96098 -12.83435,-3.70826 -14.7422,-3.99522 -26.56233,-3.99522 -17.40588,0 -29.7976,3.54565 -43.20726,12.3629 -14.78226,9.71979 -26.953032,25.30278 -32.228195,41.26377 -5.33001,16.12694 -5.619189,30.87257 -0.935802,47.71778 l 1.719525,6.1848 27.575862,-27.41978 c 32.53393,-32.34978 33.66146,-33.13506 47.57587,-33.13506 7.80295,0 9.67037,0.35263 14.04015,2.65129 6.14851,3.23434 12.90503,10.37039 15.76884,16.65462 1.55533,3.41296 2.1389,6.70112 2.16089,12.17567 0.0546,13.60152 -0.11313,13.84167 -32.2805,46.20967 -32.38911,32.59114 -30.63515,29.1305 -16.35566,32.27027 12.38994,2.72429 22.63823,2.56899 35.5111,-0.53811 z"
       style="fill:#a9d6cb" />
    <path
       id="path4208"
       d="M 236.5,510.98829 C 193.76124,507.9319 149.68764,492.64203 113.8525,468.43983 97.512796,457.40437 89.719047,450.89662 74.5,435.58061 45.934965,406.83358 26.984013,376.39307 13.965698,338.34565 -16.874639,248.21146 5.3112662,148.00759 71.307694,79.357343 112.40082,36.6118 162.62933,11.041482 222.5,2.3884112 c 17.89023,-2.58566458 51.49341,-2.36280103 70,0.4642552 24.33921,3.7180443 46.14239,9.9840506 66.74243,19.1810796 82.04777,36.630796 138.13524,111.583344 150.38489,200.966994 2.32218,16.94462 2.32218,49.0539 0,65.99852 -6.26389,45.7065 -22.52616,84.92593 -51.00206,123.00074 -9.23529,12.34841 -34.44377,37.51242 -46.98892,46.90603 C 359.63319,497.84517 300.13439,515.53899 236.5,510.98829 Z m -55.55348,-81.00722 c 14.72447,-4.14654 26.4028,-11.30791 37.33031,-22.89165 8.22218,-8.71594 13.70414,-17.93183 17.89834,-30.08942 3.14593,-9.11899 3.27585,-10.10159 3.23946,-24.5 -0.0337,-13.34547 -0.31319,-15.79382 -2.53365,-22.1968 l -2.49574,-7.19679 44.11764,-44.10929 44.11765,-44.10929 7.43973,2.12718 c 16.03087,4.58357 36.06054,3.53115 51.66183,-2.71447 19.12357,-7.65569 36.92276,-25.45488 44.57845,-44.57845 6.37583,-15.92654 7.39018,-36.45589 2.54513,-51.51065 L 426.5,130.92289 399,157.93788 c -31.8757,31.31352 -34.98464,33.50656 -47.5,33.50656 -23.07183,0 -38.74042,-24.13414 -29.16063,-44.91575 2.3429,-5.08249 6.86717,-10.10291 30.39503,-33.72827 15.20332,-15.266324 27.38174,-28.017617 27.06315,-28.336207 -0.31859,-0.318589 -5.01587,-1.498294 -10.4384,-2.621567 C 327.34856,73.140185 287.75658,96.664011 274.84303,138 c -3.36043,10.75668 -3.3764,31.84938 -0.0329,43.4453 l 2.29091,7.94531 -44.08967,44.09802 -44.08966,44.09801 -8.71086,-2.2415 c -18.02853,-4.63915 -39.17458,-2.49159 -55.39211,5.62554 -20.77601,10.39873 -34.757939,27.07577 -41.973794,50.06456 -1.95416,6.22571 -2.343236,9.62259 -2.344013,20.46476 -8.95e-4,12.47203 1.86682,24.25724 4.520911,28.52676 0.715191,1.15049 7.111476,-4.70483 29.196986,-26.72764 32.30889,-32.21717 33.01651,-32.71731 46.28117,-32.71087 6.66457,0.003 8.94504,0.46036 13.66136,2.7385 9.70442,4.68756 17.01633,15.08946 18.35856,26.11684 0.80017,6.57404 -2.02765,15.77452 -6.84171,22.25984 -1.95827,2.63811 -14.83698,16.04319 -28.61935,29.78907 C 143.27649,415.23837 132,426.75464 132,427.08421 c 0,0.81409 7.10749,2.96278 15,4.5347 8.82631,1.7579 24.5887,0.9974 33.94652,-1.63784 z"
       style="fill:#f3cd86" />
    <path
       id="path4206"
       d="M 236.5,510.98829 C 193.76124,507.9319 149.68764,492.64203 113.8525,468.43983 97.512796,457.40437 89.719047,450.89662 74.5,435.58061 45.934965,406.83358 26.984013,376.39307 13.965698,338.34565 -16.874639,248.21146 5.3112662,148.00759 71.307694,79.357343 112.40082,36.6118 162.62933,11.041482 222.5,2.3884112 c 17.89023,-2.58566458 51.49341,-2.36280103 70,0.4642552 24.33921,3.7180443 46.14239,9.9840506 66.74243,19.1810796 82.04777,36.630796 138.13524,111.583344 150.38489,200.966994 2.32218,16.94462 2.32218,49.0539 0,65.99852 -6.26389,45.7065 -22.52616,84.92593 -51.00206,123.00074 -9.23529,12.34841 -34.44377,37.51242 -46.98892,46.90603 C 359.63319,497.84517 300.13439,515.53899 236.5,510.98829 Z m -55.55348,-81.00722 c 14.72447,-4.14654 26.4028,-11.30791 37.33031,-22.89165 8.22218,-8.71594 13.70414,-17.93183 17.89834,-30.08942 3.14593,-9.11899 3.27585,-10.10159 3.23946,-24.5 -0.0337,-13.34547 -0.31319,-15.79382 -2.53365,-22.1968 l -2.49574,-7.19679 44.11764,-44.10929 44.11765,-44.10929 7.43973,2.12718 c 16.03087,4.58357 36.06054,3.53115 51.66183,-2.71447 19.12357,-7.65569 36.92276,-25.45488 44.57845,-44.57845 6.37583,-15.92654 7.39018,-36.45589 2.54513,-51.51065 L 426.5,130.92289 399,157.93788 c -31.8757,31.31352 -34.98464,33.50656 -47.5,33.50656 -23.07183,0 -38.74042,-24.13414 -29.16063,-44.91575 2.3429,-5.08249 6.86717,-10.10291 30.39503,-33.72827 15.20332,-15.266324 27.38174,-28.017617 27.06315,-28.336207 -0.31859,-0.318589 -5.01587,-1.498294 -10.4384,-2.621567 C 327.34856,73.140185 287.75658,96.664011 274.84303,138 c -3.36043,10.75668 -3.3764,31.84938 -0.0329,43.4453 l 2.29091,7.94531 -44.08967,44.09802 -44.08966,44.09801 -8.71086,-2.2415 c -18.02853,-4.63915 -39.17458,-2.49159 -55.39211,5.62554 -20.77601,10.39873 -34.757939,27.07577 -41.973794,50.06456 -1.95416,6.22571 -2.343236,9.62259 -2.344013,20.46476 -8.95e-4,12.47203 1.86682,24.25724 4.520911,28.52676 0.715191,1.15049 7.111476,-4.70483 29.196986,-26.72764 32.30889,-32.21717 33.01651,-32.71731 46.28117,-32.71087 6.66457,0.003 8.94504,0.46036 13.66136,2.7385 9.70442,4.68756 17.01633,15.08946 18.35856,26.11684 0.80017,6.57404 -2.02765,15.77452 -6.84171,22.25984 -1.95827,2.63811 -14.83698,16.04319 -28.61935,29.78907 C 143.27649,415.23837 132,426.75464 132,427.08421 c 0,0.81409 7.10749,2.96278 15,4.5347 8.82631,1.7579 24.5887,0.9974 33.94652,-1.63784 z m 206.62534,-23.65246 c 7.07439,-2.39928 16.47271,-11.97065 18.97916,-19.32861 2.73581,-8.03127 2.41732,-16.19881 -0.91702,-23.51654 -2.41293,-5.29558 -8.09429,-11.35835 -49.41901,-52.73665 l -46.69263,-46.7532 -22.76322,22.74708 -22.76322,22.74708 45.25204,45.27927 c 24.88862,24.90361 46.91614,46.43884 48.95003,47.85608 2.03389,1.41724 5.40889,3.18706 7.5,3.93294 5.27713,1.88232 15.98134,1.77102 21.87387,-0.22745 z"
       style="fill:#8ac8b5" />
    <path
       id="path4204"
       d="M 238.664,510.91069 C 148.36228,504.80792 68.357707,451.45614 27.438142,370.05279 -21.784034,272.13263 -2.3943812,153.0452 75.407449,75.434733 116.95118,33.993187 170.06086,8.4097592 228,1.9294865 c 13.48724,-1.50849713 42.51276,-1.50849713 56,0 C 419.30005,17.062284 519.46799,135.95377 510.92055,271.26639 c -1.17486,18.59903 -3.06456,30.8673 -7.41542,48.14224 -4.43991,17.62852 -9.04814,29.88599 -18.4977,49.2022 -29.37949,60.05576 -79.90192,105.04877 -144.39278,128.58975 -19.19642,7.00723 -44.89763,12.12278 -69.11465,13.75653 -16.38554,1.10542 -15.77966,1.10628 -32.836,-0.0464 z M 184,429.11567 c 27.35031,-8.79814 47.38426,-30.59856 54.13327,-58.90641 2.7643,-11.59451 2.24517,-29.10198 -1.18701,-40.03129 l -2.29937,-7.32203 44.00796,-44.00796 44.00796,-44.00797 7.41859,2.33 c 6.34174,1.99178 9.52337,2.32999 21.9186,2.32999 12.40698,0 15.5826,-0.33821 22,-2.34303 C 396.30304,230.18939 413.54346,215.69748 423.55753,195.5 429.53207,183.44988 432,173.28107 432,160.71382 c 0,-9.54797 -2.68544,-25.00666 -4.98606,-28.70214 -0.72941,-1.17165 -6.84026,4.3855 -28.72025,26.11796 -16.27179,16.16207 -29.4727,28.45629 -31.84388,29.65671 -8.79233,4.45115 -20.04641,4.52371 -29.00485,0.187 -6.03723,-2.92257 -13.88191,-11.76207 -15.94161,-17.96326 -2.27601,-6.85243 -2.06986,-15.3847 0.54558,-22.58088 2.01054,-5.53183 4.06593,-7.82603 30.66782,-34.23108 C 368.39881,97.632103 381.06544,84.752607 380.8648,84.577028 379.03672,82.977286 365.2359,80.68663 355,80.283998 c -10.33932,-0.4067 -13.986,-0.137562 -21.09683,1.557025 -16.00499,3.814161 -29.16614,11.340209 -39.90324,22.818207 -10.8103,11.55625 -16.56497,22.18452 -20.16571,37.24394 -2.71975,11.37488 -2.19327,30.02939 1.14312,40.50394 l 2.20007,6.90711 -44.1962,44.20457 -44.1962,44.20458 -5.89039,-1.8333 c -18.41662,-5.7319 -41.16368,-3.83786 -58.39462,4.86224 -22.60361,11.41283 -39.373342,33.62927 -43.568422,57.71919 -1.705148,9.79169 -0.674222,27.18454 2.153622,36.33391 l 2.25792,7.30542 28.07844,-28.00337 c 32.09484,-32.00902 34.23518,-33.53234 47.07844,-33.50678 22.95565,0.0457 38.3156,23.46205 29.00247,44.21446 -2.22114,4.94937 -6.69067,9.88445 -30.55211,33.73448 C 143.57766,413.91496 131,426.77715 131,427.13226 c 0,0.66383 9.02376,3.24964 17,4.87144 2.475,0.50324 9.45,0.7469 15.5,0.54147 8.83038,-0.29983 12.87376,-0.97626 20.5,-3.4295 z m 201.14718,-21.96956 c 1.45594,-0.56013 2.82398,-0.84161 3.04008,-0.62551 0.75189,0.75188 10.15716,-7.05075 14.01194,-11.62433 2.13411,-2.53206 4.114,-5.89308 4.39976,-7.46894 0.28575,-1.57587 0.93535,-3.3662 1.44354,-3.97853 0.50818,-0.61233 0.76726,-4.45131 0.57572,-8.53106 -0.32729,-6.97114 -2.18778,-12.43143 -6.08446,-17.85713 -0.56857,-0.79167 -21.61859,-22.16667 -46.77782,-47.5 L 310.01189,263.5 l -23.02593,23.02267 -23.02592,23.02267 47.76998,47.52825 c 46.38307,46.14837 47.94284,47.58485 53.72375,49.47734 6.31833,2.06841 15.16879,2.3359 19.69341,0.59518 z"
       style="fill:#caab71" />
    <path
       id="path4202"
       d="M 238.664,510.91069 C 148.36228,504.80792 68.357707,451.45614 27.438142,370.05279 -21.784034,272.13263 -2.3943812,153.0452 75.407449,75.434733 116.95118,33.993187 170.06086,8.4097592 228,1.9294865 c 13.48724,-1.50849713 42.51276,-1.50849713 56,0 C 419.30005,17.062284 519.46799,135.95377 510.92055,271.26639 c -1.17486,18.59903 -3.06456,30.8673 -7.41542,48.14224 -4.43991,17.62852 -9.04814,29.88599 -18.4977,49.2022 -29.37949,60.05576 -79.90192,105.04877 -144.39278,128.58975 -19.19642,7.00723 -44.89763,12.12278 -69.11465,13.75653 -16.38554,1.10542 -15.77966,1.10628 -32.836,-0.0464 z M 184,429.11567 c 27.35031,-8.79814 47.38426,-30.59856 54.13327,-58.90641 2.76391,-11.59288 2.24513,-29.10218 -1.18599,-40.02791 l -2.29836,-7.31864 10.66738,-10.66738 10.66737,-10.66737 51.75817,51.60782 c 57.8959,57.72774 54.94526,55.36927 69.25816,55.35866 9.11534,-0.007 15.21206,-2.62096 22.04277,-9.45167 7.11753,-7.11754 9.46202,-12.84444 9.43328,-23.04277 -0.0402,-14.25849 1.34806,-12.52845 -56.1155,-69.9321 l -50.48473,-50.4321 10.39687,-10.39686 10.39687,-10.39687 7.41522,2.32896 C 336.42272,239.16165 339.60656,239.5 352,239.5 c 12.40698,0 15.5826,-0.33821 22,-2.34303 C 396.30304,230.18939 413.54346,215.69748 423.55753,195.5 429.53207,183.44988 432,173.28107 432,160.71382 c 0,-9.54797 -2.68544,-25.00666 -4.98606,-28.70214 -0.72941,-1.17165 -6.84026,4.3855 -28.72025,26.11796 -16.27179,16.16207 -29.4727,28.45629 -31.84388,29.65671 -8.79233,4.45115 -20.04641,4.52371 -29.00485,0.187 -6.03723,-2.92257 -13.88191,-11.76207 -15.94161,-17.96326 -2.27601,-6.85243 -2.06986,-15.3847 0.54558,-22.58088 2.01054,-5.53183 4.06593,-7.82603 30.66782,-34.23108 C 368.39881,97.632103 381.06544,84.752607 380.8648,84.577028 379.03672,82.977286 365.2359,80.68663 355,80.283998 c -10.33932,-0.4067 -13.986,-0.137562 -21.09683,1.557025 -16.00499,3.814161 -29.16614,11.340209 -39.90324,22.818207 -10.8103,11.55625 -16.56497,22.18452 -20.16571,37.24394 -2.71975,11.37488 -2.19327,30.02939 1.14312,40.50394 l 2.20007,6.90711 -44.1962,44.20457 -44.1962,44.20458 -5.89039,-1.8333 c -18.41662,-5.7319 -41.16368,-3.83786 -58.39462,4.86224 -22.60361,11.41283 -39.373342,33.62927 -43.568422,57.71919 -1.705148,9.79169 -0.674222,27.18454 2.153622,36.33391 l 2.25792,7.30542 28.07844,-28.00337 c 32.09484,-32.00902 34.23518,-33.53234 47.07844,-33.50678 22.95565,0.0457 38.3156,23.46205 29.00247,44.21446 -2.22114,4.94937 -6.69067,9.88445 -30.55211,33.73448 C 143.57766,413.91496 131,426.77715 131,427.13226 c 0,0.66383 9.02376,3.24964 17,4.87144 2.475,0.50324 9.45,0.7469 15.5,0.54147 8.83038,-0.29983 12.87376,-0.97626 20.5,-3.4295 z"
       style="fill:#75c1ae" />
    <path
       id="path4200"
       d="m 150,447.36756 c -6.31627,-1.23921 -18,-4.65429 -18,-5.26127 0,-0.37104 2.37913,-3.02418 5.28695,-5.89588 l 5.28694,-5.22128 5.96306,1.11957 c 7.44607,1.39802 23.91311,0.54686 31.96305,-1.65211 15.31253,-4.18287 30.98144,-14.2261 41.09129,-26.33812 C 228.22991,396.16512 235.312,382.26651 237.95736,372 l 1.93252,-7.5 0.0551,5.16203 c 0.13516,12.67162 -5.3885,30.22403 -13.21054,41.97882 -11.21125,16.84802 -27.622,28.54276 -47.71965,34.0063 -5.56276,1.51223 -24.38679,2.6284 -29.01475,1.72041 z m 217.32418,-24.74671 c -2.29671,-0.75132 -5.67171,-2.30327 -7.5,-3.44877 -1.8283,-1.1455 -25.81912,-24.59946 -53.31293,-52.1199 l -49.98874,-50.03717 -9.08272,9.04495 -9.08272,9.04495 -1.73494,-6.24023 -1.73494,-6.24024 10.54824,-10.54824 10.54824,-10.54824 51.75817,51.60782 c 57.8959,57.72774 54.94526,55.36927 69.25816,55.35866 5.92662,-0.004 8.54892,-0.51989 12.5,-2.45724 6.15413,-3.01758 13.34343,-10.07531 16.22684,-15.92989 2.12505,-4.31476 2.17526,-4.34558 2.82992,-1.73719 1.00341,3.9979 -0.36737,11.49969 -3.16927,17.34432 -2.81524,5.87244 -9.34805,12.11987 -16.08256,15.37999 -5.60842,2.71499 -16.11675,3.44473 -21.98075,1.52642 z M 83.48738,390.30859 C 81.234166,382.55781 79.989681,374.4937 80.121793,368.5 c 0.06062,-2.75 0.309544,-4.1 0.553175,-3 0.24363,1.1 1.390356,5.2907 2.548278,9.31268 l 2.105314,7.31267 28.08572,-28.01062 c 24.01349,-23.94928 28.9474,-28.40409 34.02865,-30.72431 11.92204,-5.44389 26.33963,-2.76892 35.40093,6.56813 6.17292,6.36076 8.56835,12.12951 8.94495,21.54145 l 0.32011,8 -2.42293,-5.0654 c -3.47766,-7.27043 -7.95318,-11.91231 -14.76943,-15.31843 -10.73729,-5.36549 -22.14603,-4.8781 -31.78542,1.35789 -1.99713,1.292 -15.55296,14.31388 -30.12406,28.93752 C 98.435968,384.03521 86.205399,396 85.828035,396 c -0.377365,0 -1.43066,-2.56113 -2.340655,-5.69141 z m 222.00305,-130.31839 -3.93707,-4.03193 10.5581,-10.5581 10.5581,-10.5581 7.41522,2.32896 c 6.39956,2.00997 9.46977,2.32678 22.41522,2.31301 14.25116,-0.0152 15.45669,-0.17476 24.14792,-3.19674 12.92347,-4.49355 22.47508,-10.43269 31.84088,-19.7985 9.32581,-9.3258 15.36481,-19.00992 19.53752,-31.33027 2.78901,-8.23484 2.93352,-8.4485 2.95309,-4.36637 0.0309,6.43813 -2.78019,18.82499 -6.06108,26.70784 -7.65234,18.38594 -24.35312,35.23738 -42.42069,42.80336 -18.03689,7.55312 -37.4223,8.30276 -55.99764,2.16543 l -4,-1.3216 -6.53625,6.43747 -6.53624,6.43747 -3.93708,-4.03193 z M 190.32565,229.19931 167.15131,206.5 143.97175,195 120.7922,183.5 108.81764,159.60119 96.843082,135.70237 l 2.496383,-2.49638 2.496385,-2.49638 -2.597014,-5.29521 -2.597012,-5.2952 10.781116,-11.5596 C 113.35256,102.20182 118.65241,97 119.2004,97 c 0.54798,0 11.42809,5.47612 24.17802,12.16916 l 23.18169,12.16915 12.33617,23.58085 12.33618,23.58084 26.62405,26.74722 26.62404,26.74722 -14.97777,15.00278 c -8.23778,8.25153 -15.2084,14.97997 -15.49028,14.95209 -0.28187,-0.0279 -10.94096,-10.26538 -23.68685,-22.75 z m 83.28801,-38.0154 c -0.34264,-0.55441 -0.83183,-5.21009 -1.08708,-10.34596 -0.25526,-5.13587 -0.22982,-8.43795 0.0565,-7.33795 0.28634,1.1 1.42968,5.10153 2.54076,8.89228 1.76708,6.02887 1.83804,7.0744 0.56648,8.34597 -0.90725,0.90724 -1.68786,1.07476 -2.07667,0.44566 z m 46.43618,-30.75577 c -0.0934,-13.25253 0.50618,-14.17259 25.94812,-39.81743 l 22.70819,-22.88928 5.64693,1.776175 C 377.45888,100.4745 380,101.53237 380,101.84843 c 0,0.31606 -12.52368,13.19196 -27.83039,28.61311 -19.48781,19.6335 -28.46583,29.3874 -29.95016,32.53846 l -2.11976,4.5 -0.0498,-7.07186 z"
       style="fill:#65a192" />
    <path
       id="path4198"
       d="M 193.72202,217.22213 166.95792,190.44426 143.87506,178.97213 120.7922,167.5 108.81183,143.58958 96.831472,119.67917 108.16574,108.37066 119.5,97.062145 l 23.39061,12.342545 23.39061,12.34255 12.79475,24.37638 12.79474,24.37638 26.31465,25.68247 26.31464,25.68248 -10.98295,11.06752 C 227.47643,239.01961 222.07331,244 221.51011,244 c -0.5632,0 -13.06784,-12.05004 -27.78809,-26.77787 z"
       style="fill:#4e5c72" />
  </g>
</svg>
