<?xml version="1.0" encoding="UTF-8" standalone="no"?>
<!-- Created with Inkscape (http://www.inkscape.org/) -->

<svg
   xmlns:dc="http://purl.org/dc/elements/1.1/"
   xmlns:cc="http://creativecommons.org/ns#"
   xmlns:rdf="http://www.w3.org/1999/02/22-rdf-syntax-ns#"
   xmlns:svg="http://www.w3.org/2000/svg"
   xmlns="http://www.w3.org/2000/svg"
   xmlns:sodipodi="http://sodipodi.sourceforge.net/DTD/sodipodi-0.dtd"
   xmlns:inkscape="http://www.inkscape.org/namespaces/inkscape"
   id="svg4900"
   version="1.1"
   inkscape:version="0.91 r13725"
   width="512"
   height="512"
   viewBox="0 0 512 512.00001"
   sodipodi:docname="muslim.svg">
  <metadata
     id="metadata4906">
    <rdf:RDF>
      <cc:Work
         rdf:about="">
        <dc:format>image/svg+xml</dc:format>
        <dc:type
           rdf:resource="http://purl.org/dc/dcmitype/StillImage" />
        <dc:title></dc:title>
      </cc:Work>
    </rdf:RDF>
  </metadata>
  <defs
     id="defs4904" />
  <sodipodi:namedview
     pagecolor="#ffffff"
     bordercolor="#666666"
     borderopacity="1"
     objecttolerance="10"
     gridtolerance="10"
     guidetolerance="10"
     inkscape:pageopacity="0"
     inkscape:pageshadow="2"
     inkscape:window-width="1243"
     inkscape:window-height="755"
     id="namedview4902"
     showgrid="false"
     inkscape:zoom="0.66441439"
     inkscape:cx="173.20582"
     inkscape:cy="125.52917"
     inkscape:window-x="58"
     inkscape:window-y="14"
     inkscape:window-maximized="0"
     inkscape:current-layer="svg4900" />
  <g
     id="g8017">
    <path
       style="fill:#e6dfcc;fill-opacity:1"
       d="M 0,256 0,0 l 256,0 256,0 0,256 0,256 -256,0 -256,0 0,-256 z"
       id="path5466"
       inkscape:connector-curvature="0" />
    <g
       transform="matrix(11.531531,0,0,11.531531,69.233901,0)"
       id="g8000">
      <path
         sodipodi:nodetypes="sssssssssssssssscsscssssssssssssssssssscsscssscscssssssss"
         inkscape:connector-curvature="0"
         id="path5456"
         d="M 12.919821,40.97132 C 9.8585501,40.273793 7.9672251,39.000668 6.4588231,36.622166 c -1.090162,-1.719009 -1.072434,-2.659269 0.07741,-4.105915 1.173135,-1.47594 1.067459,-2.348067 -0.605483,-4.996983 -1.793028,-2.839058 -2.317955,-5.255204 -1.871028,-8.612 0.560484,-4.209705 1.725623,-8.893121 2.571522,-10.3365382 0.934865,-1.5952267 2.831238,-3.2106581 4.8519059,-4.1331128 1.226504,-0.5599113 2.008743,-0.6750186 4.626102,-0.680736 2.78488,-0.00608 3.345427,0.084753 4.836003,0.7836687 2.239148,1.0499134 3.978388,2.6688124 4.900352,4.5612875 0.761601,1.5633048 2.043587,7.1888698 2.415103,10.5978698 0.26812,2.460249 -0.262796,4.960601 -1.486419,7.000294 -2.298605,3.831612 -2.367653,4.210875 -1.065039,5.85 0.507179,0.638202 0.9,1.492522 0.9,1.957348 0,1.102716 -1.64651,3.492462 -3.238239,4.699983 -2.378913,1.804698 -6.91352,2.570064 -10.451192,1.763988 z m 1.464433,-2.770002 c -0.20625,-0.08322 -0.54375,-0.08322 -0.75,0 -0.20625,0.08322 -0.0375,0.151317 0.375,0.151317 0.4125,0 0.58125,-0.06809 0.375,-0.151317 z m 3.792237,-1.393986 c 0.88948,-0.526533 2.150375,-1.626069 2.801989,-2.443413 2.161802,-2.711638 4.283433,-7.736171 5.030232,-11.912802 0.186959,-1.045614 0.385926,-2.137366 0.442148,-2.426116 0.05622,-0.28875 -0.0091,-0.525 -0.145065,-0.525 -0.136008,0 -0.545617,1.309564 -0.910242,2.910141 -1.176369,5.16386 -2.910097,9.402846 -4.855312,11.871304 -0.997225,1.265466 -2.777677,2.559045 -4.580987,3.328296 -0.983342,0.419472 -1.037507,0.479667 -0.3,0.333405 0.495,-0.09817 1.627756,-0.609285 2.517237,-1.135815 z m -4.092009,-0.441906 c 2.928274,-1.298277 6.860913,-5.910919 8.575299,-10.058069 0.929124,-2.24758 1.749684,-6.465068 1.907478,-9.803989 l 0.092,-1.946633 c 0.03017,-0.638478 -0.07001,-1.301374 -0.315914,-1.89137 -0.975986,-2.341666 -2.940929,-3.6937734 -6.242531,-4.3021173 -3.458045,-0.6371701 -7.08952,0.3572745 -9.0763219,2.4854643 -1.293653,1.385713 -1.61664,2.572426 -1.438593,5.285652 0.52177,7.951132 2.245175,12.457587 6.4843139,16.955547 l 1.639792,1.739911 -0.775373,0.53271 c -1.2311,0.845814 -2.499614,1.260615 -4.713807,1.541403 l -2.0615659,0.261429 2.2499999,-0.08402 c 1.482321,-0.05536 2.736274,-0.299619 3.675223,-0.715918 z m 0.557274,-3.626605 -1.223368,-1.46118 1.345433,0.483816 c 1.238336,0.445302 1.452893,0.445173 2.695433,-0.0015 0.7425,-0.267003 1.35,-0.431673 1.35,-0.365934 0,0.236421 -2.481792,2.805979 -2.710273,2.805979 -0.128621,0 -0.784372,-0.657531 -1.457225,-1.461181 z m -3.424027,1.236181 C 9.4655641,31.696621 7.9604561,28.654851 6.9475861,25.345193 6.0111811,22.285392 5.4234081,21.326052 5.7295971,23.35724 c 0.458755,3.043275 2.912924,8.064824 5.3695889,10.986882 1.617826,1.924308 1.69573,1.681731 0.118543,-0.36912 z"
         style="fill:#373936;fill-opacity:1" />
      <path
         inkscape:connector-curvature="0"
         style="fill:#373936;fill-opacity:1;stroke:none;stroke-width:0.08455195"
         id="Selection-5"
         d="m 16.846404,28.253662 -1.606487,-0.0186 m 0,0 -0.507312,-0.09216 m 0.529131,-0.05879 c -0.346875,-0.05291 -1.268375,-0.330769 -1.797704,-0.995156 -0.10869,-0.136422 -0.380706,-0.450032 -0.304093,-0.702197 0.07108,-0.23394 0.448126,-0.183477 0.642595,-0.231672 l 1.198101,-0.581717 c 0.680642,-0.09301 0.763504,0.329753 1.246295,0.243506 0.224064,-0.04058 0.330599,-0.186859 0.602856,-0.213917 0.44897,-0.04481 0.887796,0.297623 1.279271,0.471801 0.356809,0.158957 0.770268,0.05834 0.90217,0.308614 0.09554,0.182633 -0.12658,0.528732 -0.296778,0.727993 -0.477736,0.559313 -1.570566,0.895369 -1.888045,0.96592 -0.317479,0.07055 -0.526592,0.09047 -0.792334,0.0916 -0.265742,0.0011 -0.445459,-0.03186 -0.792334,-0.08478 z"
         sodipodi:nodetypes="cccczssccccccszzz" />
      <path
         style="opacity:1;fill:#373936;fill-opacity:1;stroke:none;stroke-opacity:1"
         d="M 16.109375,8.4896572 A 8.5857378,5.7035054 0 0 0 7.560911,13.710244 l 17.096928,0 A 8.5857378,5.7035054 0 0 0 16.109375,8.4896572 Z"
         id="path6102"
         inkscape:connector-curvature="0" />
    </g>
  </g>
</svg>
